<svg xmlns="http://www.w3.org/2000/svg" fill="none" viewBox="0 0 135 69"><path fill="#E6E6E6" d="M120.244.432H15.268V66.95h104.976V.432Z"/><path fill="#fff" d="M117.242 8.775H18.27v54.24h98.972V8.774Z"/><path fill="#12B09B" d="M15.223.373h104.976v4.412H15.223V.373Z"/><path fill="#fff" d="M18.538 3.447a.822.822 0 0 0 .826-.818.822.822 0 0 0-.826-.818.822.822 0 0 0-.827.818c0 .452.37.818.827.818Zm3.137 0a.822.822 0 0 0 .826-.818.822.822 0 0 0-.826-.818.822.822 0 0 0-.827.818c0 .452.37.818.827.818Zm3.137 0a.822.822 0 0 0 .827-.818.822.822 0 0 0-.827-.818.822.822 0 0 0-.827.818c0 .452.37.818.827.818Z"/><path fill="#CCC" d="M89.237 13.855H57.015a.287.287 0 0 1-.248-.28.281.281 0 0 1 .248-.28h32.222a.281.281 0 0 1 0 .561ZM66.91 16.941H46.424a.287.287 0 0 1-.248-.28c0-.069.025-.135.07-.187a.287.287 0 0 1 .178-.094H66.91a.281.281 0 0 1 0 .561Zm22.327.056H68.755a.287.287 0 0 1-.248-.28.281.281 0 0 1 .248-.28H89.24a.281.281 0 0 1 0 .56h-.004Zm-22.277 3.03H46.473a.281.281 0 0 1 0-.561H66.96a.287.287 0 0 1 .248.28.281.281 0 0 1-.248.281Zm.054 3.086H46.523a.281.281 0 0 1 0-.561h20.49a.287.287 0 0 1 .249.28.281.281 0 0 1-.248.281Zm9.294-3.086h-5.867a.281.281 0 0 1 0-.561h5.867a.281.281 0 0 1 0 .561Zm0 3.03h-5.867a.281.281 0 0 1 0-.561h5.867c.069.01.132.043.178.095a.281.281 0 0 1-.178.466Zm9.848 0h-5.867a.281.281 0 0 1 0-.561h5.867a.287.287 0 0 1 .248.28.287.287 0 0 1-.248.28v.001Zm-34.014-9.202h-5.868a.281.281 0 0 1 0-.561h5.868a.287.287 0 0 1 .248.28.287.287 0 0 1-.248.28ZM66.835 49.24H46.35a.286.286 0 0 1-.248-.28.281.281 0 0 1 .248-.28h20.486a.281.281 0 0 1 0 .56Zm-.101 6.17H46.25a.287.287 0 0 1-.248-.281.281.281 0 0 1 .248-.28h20.484a.281.281 0 0 1 0 .56Zm.052 3.086H46.3a.287.287 0 0 1-.248-.28.281.281 0 0 1 .248-.28h20.487a.281.281 0 0 1 0 .561Zm8.752-3.031h-5.867a.282.282 0 0 1 0-.561h5.867a.286.286 0 0 1 .248.28.287.287 0 0 1-.248.28v.001Zm0 3.031h-5.867a.281.281 0 0 1 0-.561h5.867a.287.287 0 0 1 .248.28.287.287 0 0 1-.248.28Zm9.846-3.031h-5.871a.287.287 0 0 1-.249-.28.286.286 0 0 1 .248-.28h5.868a.286.286 0 0 1 .248.28.282.282 0 0 1-.248.28h.004Zm3.879-3.142H57.041a.287.287 0 0 1-.248-.28.281.281 0 0 1 .248-.281h32.222a.281.281 0 0 1 0 .561Zm-37.096 0h-5.868a.287.287 0 0 1-.248-.28.281.281 0 0 1 .248-.281h5.868a.287.287 0 0 1 .248.28.287.287 0 0 1-.248.28v.001Z"/><path fill="#E6E6E6" d="m61.89 28.097-7.957 7.773 7.956 7.773 1.79-1.767-6.017-5.953 6.065-6-1.838-1.826Zm11.733 0 7.956 7.773-7.956 7.773-1.79-1.767 6.017-5.953-6.065-6 1.838-1.826Z"/><path fill="#12B09B" d="m61.89 28.097-7.957 7.773 7.956 7.773 1.79-1.767-6.017-5.953 6.065-6-1.838-1.826Zm11.733 0 7.956 7.773-7.956 7.773-1.79-1.767 6.017-5.953-6.065-6 1.838-1.826ZM4.137 60.078c5.597 7.414 17.212 8.195 17.212 8.195s2.543-11.24-3.052-18.655C12.7 42.204 1.085 41.423 1.085 41.423s-2.544 11.24 3.052 18.655Z"/><path fill="#1C9484" d="M10.187 62.862c3.692 4.893 11.357 5.407 11.357 5.407s1.679-7.417-2.014-12.31c-3.693-4.893-11.358-5.408-11.358-5.408s-1.678 7.422 2.014 12.311Z"/><path fill="#12B09B" d="M32.642 62.862c-3.692 4.893-11.357 5.407-11.357 5.407s-1.678-7.417 2.014-12.31c3.692-4.893 11.358-5.408 11.358-5.408s1.678 7.422-2.015 12.311Zm98.236-2.784c-5.596 7.414-17.212 8.195-17.212 8.195s-2.543-11.24 3.053-18.655c5.595-7.414 17.212-8.195 17.212-8.195s2.544 11.24-3.053 18.655Z"/><path fill="#1C9484" d="M124.828 62.862c-3.692 4.893-11.358 5.407-11.358 5.407s-1.679-7.417 2.015-12.31c3.693-4.893 11.357-5.408 11.357-5.408s1.679 7.422-2.014 12.311Z"/><path fill="#12B09B" d="M107.148 64.6c2.507 3.324 7.714 3.673 7.714 3.673s1.14-5.038-1.369-8.36c-2.508-3.323-7.714-3.673-7.714-3.673s-1.143 5.038 1.369 8.36Z"/></svg>