<svg xmlns="http://www.w3.org/2000/svg" fill="none" viewBox="0 0 127 147"><path fill="#CCC" d="M63.272 125.192a53.638 53.638 0 0 1-47.306-78.926 53.64 53.64 0 1 1 47.306 78.926Zm0-106.868A53.228 53.228 0 1 0 116.5 71.557a53.29 53.29 0 0 0-53.228-53.233Z"/><path fill="#111023" d="M83.189 133.237v-54.04h-40.22v54.04h40.22Z"/><path fill="#2F6C76" d="M90.099 77.547h-54.04v21.451h54.04v-21.45Zm0 23.926h-54.04v21.451h54.04v-21.451Zm0 23.927h-54.04v21.451h54.04V125.4Z"/><path fill="#5BD7EB" d="M90.099 86.642h-54.04v3.3h54.04v-3.3Zm0 23.926h-54.04v3.3h54.04v-3.3Zm0 23.926h-54.04v3.3h54.04v-3.3ZM79.58 81.88a1.238 1.238 0 1 0 0-2.477 1.238 1.238 0 0 0 0 2.476Zm4.331 0a1.238 1.238 0 1 0 0-2.477 1.238 1.238 0 0 0 0 2.476Zm4.332 0a1.238 1.238 0 1 0 0-2.477 1.238 1.238 0 0 0 0 2.476Zm-8.663 23.513a1.238 1.238 0 1 0-.001-2.477 1.238 1.238 0 0 0 0 2.477Zm4.331 0a1.238 1.238 0 1 0-.001-2.477 1.238 1.238 0 0 0 .001 2.477Zm4.332 0a1.238 1.238 0 1 0-.001-2.477 1.238 1.238 0 0 0 0 2.477Z"/><path fill="#2F6C76" d="M23.844 54.831v40.353a3.28 3.28 0 0 1-3.37 3.183h-16.6a3.282 3.282 0 0 1-3.372-3.184V54.831a3.282 3.282 0 0 1 3.372-3.183h2.014a1.443 1.443 0 0 0 .154 1.415 1.63 1.63 0 0 0 1.328.67h9.465a1.63 1.63 0 0 0 1.328-.67 1.442 1.442 0 0 0 .154-1.415h2.157a3.282 3.282 0 0 1 3.37 3.183Z"/><path fill="#5BD7EB" d="M79.58 128.906a1.238 1.238 0 1 0 0-2.476 1.238 1.238 0 0 0 0 2.476Zm4.331 0a1.238 1.238 0 1 0 0-2.476 1.238 1.238 0 0 0 0 2.476Zm4.332 0a1.238 1.238 0 1 0 0-2.476 1.238 1.238 0 0 0 0 2.476Z"/><path fill="#fff" d="M22.462 55.675v38.362a3.027 3.027 0 0 1-3.026 3.026H4.528A3.027 3.027 0 0 1 1.5 94.036V55.675a3.027 3.027 0 0 1 3.028-3.026c.479.13.054.85.4 1.345.245.315.588.54.975.637h10.268c.479 0 2.131-.093 2.4-.491a1.811 1.811 0 0 0 .313-1.491h.558a3.027 3.027 0 0 1 3.026 3.026h-.006Z"/><path fill="#fff" d="M21.476 60.655H2.5v26.401h18.976v-26.4Z"/><path fill="#E6E6E6" d="M14.383 78.81H6.809v.432h7.574v-.433Z"/><path fill="#5BD7EB" d="M18.52 80.399H6.8v.433h11.72v-.433Z"/><path fill="#E6E6E6" d="M15.998 81.896H6.8v.433h9.197v-.433Zm-3.788 1.496H6.8v.433h5.41v-.433Zm2.706 1.498H6.8v.433h8.115v-.433ZM4.24 78.685h-.866v.866h.866v-.866Z"/><path fill="#5BD7EB" d="M4.24 80.182h-.866v.866h.866v-.866Z"/><path fill="#E6E6E6" d="M4.24 81.68h-.866v.865h.866v-.866Zm0 1.496h-.866v.866h.866v-.866Zm0 1.497h-.866v.866h.866v-.866Zm10.522-20.718H7.131v7.631h7.631v-7.63ZM88.448.475H37.732v32.481h50.716V.476Z"/><path fill="#fff" d="M83.603 9.563H41.555v15.889h42.048V9.562Z"/><path fill="#E6E6E6" d="M59.308 12.315H49.216v.577h10.092v-.577Z"/><path fill="#5BD7EB" d="M64.82 14.432H49.207v.577H64.82v-.577Z"/><path fill="#E6E6E6" d="M61.46 16.427H49.206v.577H61.46v-.577Zm-5.046 1.995h-7.208V19h7.208v-.577Zm3.604 1.995H49.206v.577h10.812v-.577ZM45.792 12.15h-1.153v1.152h1.153V12.15Z"/><path fill="#5BD7EB" d="M45.792 14.143h-1.153v1.153h1.153v-1.153Z"/><path fill="#E6E6E6" d="M45.792 16.138h-1.153v1.153h1.153v-1.153Zm0 1.995h-1.153v1.153h1.153v-1.153Zm0 1.995h-1.153v1.154h1.153v-1.154Zm35.747-8.576H71.214v10.325h10.325V11.552Z"/><path fill="#2F6C76" d="M88.426.446H37.71v2.155h50.716V.446Z"/><path fill="#fff" d="M39.31 1.98a.432.432 0 1 0 0-.865.432.432 0 0 0 0 .864Zm1.516 0a.432.432 0 1 0 0-.865.432.432 0 0 0 0 .864Zm1.516 0a.432.432 0 1 0 0-.865.432.432 0 0 0 0 .864Z"/><path fill="#2F6C76" d="M122.408 61.253h-12.375v6.394h12.375v-6.394Zm0 22.895h-12.375v6.394h12.375v-6.394Z"/><path fill="#2F6C76" d="M116.221 86.21c5.696 0 10.313-4.617 10.313-10.312 0-5.696-4.617-10.313-10.313-10.313-5.696 0-10.313 4.617-10.313 10.313 0 5.695 4.617 10.313 10.313 10.313Z"/><path fill="#fff" d="M116.221 83.942a8.044 8.044 0 1 0-8.044-8.044 8.044 8.044 0 0 0 8.044 8.044Z"/><path fill="#E2E2E2" d="M119.825 73.693h-6.239v.356h6.239v-.356Z"/><path fill="#5BD7EB" d="M123.233 75.003h-9.653v.356h9.653v-.356Z"/><path fill="#E2E2E2" d="M121.156 76.235h-7.576v.356h7.576v-.356Zm-3.12 1.233h-4.456v.356h4.456v-.356Zm2.228 1.233h-6.684v.356h6.684v-.356Zm-8.794-5.111h-.713v.713h.713v-.713Z"/><path fill="#5BD7EB" d="M111.47 74.824h-.713v.713h.713v-.713Z"/><path fill="#E2E2E2" d="M111.47 76.057h-.713v.713h.713v-.713Zm0 1.233h-.713v.714h.713v-.713Zm0 1.234h-.713v.713h.713v-.713Z"/></svg>