<svg xmlns="http://www.w3.org/2000/svg" fill="none" viewBox="0 0 1272 429"><path fill="#C39676" d="m41.742 49.151 2.754 16.776 41.5-31.998 2.176 8.102L47.48 77.565l-2.983 19.611 34.544 59.868 79.73 34.042-36.104-39.266 3.91-28.861 6.916-20.703 17.834-19.468 7.421 5.505-17.366 13.963-7.889 20.679-2.497 28.862 48.853 45.032 17.793 8.473-17.793-48.282v-48.916l17.793-30.568 5.475 10.757-10.583 24.925v43.802l36.921 63.428 16.26 7.744-36.453 27.103-137.22-70.653-45.783-76.538-10.5-61.479L.006 4.758l15.75 3.488 10.5 34.019L69.724.397h11.015L41.742 49.151Zm451.901.008-2.754 16.775-41.501-31.997-2.176 8.102 40.694 35.534 2.983 19.61-34.521 59.845-79.73 34.042 36.104-39.266-3.91-28.861-6.925-20.679-17.834-19.468-7.435 5.504 15.783 13.964 9.486 20.679v28.861l-46.352 45.032-17.793 8.474 17.793-48.282v-48.916l-17.793-30.568-5.475 10.756 10.555 24.944v43.784l-36.907 63.427-16.26 7.745 36.448 27.098 137.216-70.648 45.783-76.538 10.501-61.479 15.75-41.867-15.75 3.488-10.501 34.018L465.657.391h-11.014l39 48.768Z"/><path fill="#A47F64" d="m470.295 169.637-160.65 73.275 17.745 12.023 135.506-69.733 7.399-15.565Z"/><path fill="#A47F64" d="m512.513 88.18-63.377 94.618 14.197 1.648 46.552-75.976 2.628-20.29Z"/><path fill="#A1755C" d="m207.246 254.427 37.798-27.365h48.399l33.809 27.365 9.574 47.043-30.07 75.614-1.491 17.009-39.009 24.424-36.531-24.424-1.267-17.009-28.981-76.32 7.769-46.337Z"/><path fill="#A47F64" d="m62.935 169.637 160.65 73.274-16.217 11.77-135.524-69.989-8.91-15.055Z"/><path fill="#7D5B48" d="m328.947 255.88-36.209-29.179-18.539 134.451-7.808 57.351 38.781-24.353 1.594-17.255 29.97-75.489-7.789-45.526ZM98.585 226.438l76.191 56.415 26.646 19.696 8.383-48.258-111.22-27.853Z"/><path fill="#FCDBB1" d="m101.208 227.501 18.895 39.51 36.631 27.442 44.164 6.213-99.69-73.165Z"/><path fill="#7D5B48" d="m436.641 224.406-75.249 57.862-26.311 20.226-9.218-48.111 110.778-29.977Z"/><path fill="#FCDBB1" d="m434.04 225.487-18.099 40.156-35.872 28.342-43.67 7.108 97.641-75.606Z"/><path fill="#7D5B48" d="m207.032 254.525 37.276-26.915 15.652 133.083 6.277 57.802-36.791-24.497-.016-16.766-30.781-78.752 8.383-43.955Z"/><path fill="#88634F" d="m266.359 418.525-42.42-175.981 20.51-15.914 21.91 191.895Zm.126-.325 47.613-174.44-21.403-17.134-26.21 191.574Z"/><path fill="#A47F64" d="m22.885 88.189 63.378 94.618-14.197 1.648-46.553-75.976-2.628-20.29Z"/><path fill="#EEEFF0" d="M271.978 44.225c-3.574-.007-7.108.606-10.367 1.799-3.259 1.193-6.168 2.937-8.534 5.117-2.366 2.18-4.133 4.746-5.185 7.526a16.849 16.849 0 0 0-.914 8.597c.393 2.483 1.349 4.885 2.82 7.083a20.609 20.609 0 0 0 1.69 2.239c3.458 3.922 8.505 6.725 14.252 7.916 5.747 1.191 11.826.694 17.168-1.403a24.115 24.115 0 0 0 2.48-1.124c4.579-2.379 8.09-5.9 10.008-10.039 1.917-4.138 2.137-8.67.628-12.919-1.509-4.248-4.667-7.985-9.001-10.652-4.335-2.666-9.613-4.118-15.045-4.14Zm0 17.414c-1.494 0-2.953-.36-4.195-1.036-1.241-.675-2.209-1.636-2.781-2.759a5.093 5.093 0 0 1-.429-3.55c.291-1.193 1.01-2.288 2.066-3.148 1.056-.86 2.401-1.445 3.866-1.682a9.162 9.162 0 0 1 4.362.35c1.38.465 2.559 1.253 3.388 2.263.83 1.011 1.273 2.2 1.273 3.415 0 1.63-.796 3.194-2.212 4.346-1.416 1.153-3.336 1.8-5.338 1.8Z"/><path fill="#000" d="m251.848 53.44-.36 23.178a20.523 20.523 0 0 1-1.69-2.271l2.05-20.906Zm33.97 0-.43 28.609c-.796.417-1.624.792-2.48 1.123l2.91-29.731Z" opacity=".1"/><path fill="#000" d="M296.978 67.264c-.771 4.949-3.732 9.498-8.329 12.796s-10.514 5.117-16.641 5.117c-6.127 0-12.044-1.82-16.641-5.117-4.597-3.298-7.558-7.847-8.329-12.796 7.799-3.028 16.33-4.6 24.97-4.6s17.172 1.572 24.97 4.6Z" opacity=".1"/><path fill="#EEEFF0" d="M329.858 111.837a39.01 39.01 0 0 1-1.41 10.38c-1.702 6.162-4.923 11.978-9.47 17.096a52.409 52.409 0 0 1-5 4.885c-7.889 6.787-18.082 11.509-29.28 13.563a62.528 62.528 0 0 1-6.11.814c-2.203.217-4.42.323-6.64.318-7.251.005-14.44-1.099-21.19-3.257a60.188 60.188 0 0 1-5.65-2.1c-13.09-5.591-23.068-15.036-27.9-26.41a38.408 38.408 0 0 1-1.73-4.974 37.331 37.331 0 0 1-.87-3.941 39.333 39.333 0 0 1-.54-6.439c-.004-4.665.842-9.304 2.51-13.767.33-.903.71-1.79 1.11-2.678 3.71-8.097 10.084-15.208 18.424-20.555 8.34-5.347 18.325-8.724 28.863-9.762 10.539-1.038 21.226.303 30.891 3.877s17.938 9.242 23.912 16.385c6.581 7.823 10.095 17.084 10.08 26.565Z"/><path fill="#000" d="m217.718 95.392-.48 31.799a38.259 38.259 0 0 1-1.73-4.974 37.331 37.331 0 0 1-.87-3.941l2-20.206c.34-.928.68-1.79 1.08-2.678Zm34.13-10.193-1.06 70.502a59.71 59.71 0 0 1-5.65-2.101l6.71-68.401Zm33.97 0-1.09 72.61a62.57 62.57 0 0 1-6.11.815l7.2-73.425Zm33.98 0v.081l-.819 54.074a52.517 52.517 0 0 1-5 4.884l5.769-58.974.05-.065Z" opacity=".1"/><path fill="#000" d="M328.448 122.217c-2.892 10.434-10.059 19.757-20.321 26.436-10.262 6.679-23.01 10.318-36.149 10.318s-25.887-3.639-36.15-10.318c-10.262-6.679-17.428-16.002-20.32-26.436 17.139-8.142 36.626-12.432 56.47-12.432 19.843 0 39.331 4.29 56.47 12.432Z" opacity=".1"/><path fill="#F50057" d="M383.978 202.976c.045 22.078 2.152 35.719-15.732 52.316-2.36 2.181-19.432-21.227-22.022-19.241-13.257 10.229-7.437-14.689-25.041-10.725-2.89.668 10.296-4.59 7.316-4.142-14.985 2.325-28.611.051-43.507-2.624 36.149-78.249-10.061-11.098-12.891-11.806-16.986-4.248 36.069 26.727-9.131 25.799 33.075-38.462-87.004 28.296-89.164 26.237-40.362-38.16 32.846-105.861 25.089-124.966-7.757-19.105 117.59-28.563 157.953 9.596 17.519 16.563 27.147 37.699 27.13 59.556Z"/><path fill="#000" d="m202.038 248.891 1.31-114.513-8.14 108.611 6.83 5.902Zm154.25 1.931 1.24-96.986-8.66 102.547 7.42-5.561Z" opacity=".1"/><path fill="#EEEFF0" d="M175.088 203.009c64.217-48.489 128.808-48.693 193.78 0 4.005 0 7.846 1.295 10.678 3.6 2.831 2.306 4.422 5.432 4.422 8.693v34.827c0 3.261-1.591 6.388-4.422 8.693-2.832 2.305-6.673 3.6-10.678 3.6-63.283-24.084-127.674-27.813-193.78 0-1.983 0-3.946-.317-5.778-.935-1.832-.618-3.497-1.524-4.899-2.665-1.402-1.142-2.514-2.497-3.273-3.988a10.345 10.345 0 0 1-1.15-4.705v-34.827c0-3.261 1.591-6.387 4.423-8.693 2.832-2.305 6.673-3.6 10.677-3.6Z"/><path fill="#000" d="m192.288 242.07 2.92-38.923-.44 38.923h-2.48Zm56.579 0 .45-38.923-2.92 38.923h2.47Zm54.551-38.923-.45 38.923h-2.47l2.92-38.923Zm51.19 38.923 2.92-38.923-.44 38.923h-2.48Z" opacity=".1"/><path fill="#000" d="M574.424 151.494h5.44c20.287 0 35.927 5.553 46.92 16.66 11.107 10.993 16.66 26.69 16.66 47.09 0 11.673-2.833 22.383-8.5 32.13-5.667 9.747-13.373 17.453-23.12 23.12-9.633 5.667-20.287 8.5-31.96 8.5h-5.44v-127.5Zm6.8 122.23c10.427 0 19.947-2.55 28.56-7.65 8.613-5.213 15.413-12.297 20.4-21.25 5.1-8.953 7.65-18.813 7.65-29.58 0-18.813-4.93-33.263-14.79-43.35-9.747-10.2-23.687-15.3-41.82-15.3h-1.36v117.13h1.36Zm118.189 2.55c5.893 0 11.503-1.53 16.83-4.59 5.326-3.06 9.746-7.253 13.26-12.58v8.67c-4.194 4.647-8.784 8.047-13.77 10.2-4.987 2.04-10.654 3.06-17 3.06-7.027 0-13.657-1.87-19.89-5.61-6.12-3.74-11.05-8.727-14.79-14.96-3.627-6.233-5.44-12.863-5.44-19.89 0-7.593 1.813-14.393 5.44-20.4 3.626-6.12 8.556-10.88 14.79-14.28 6.346-3.4 13.373-5.1 21.08-5.1 11.786 0 21.816 4.647 30.09 13.94l-53.38 52.7c3.74 3.06 7.366 5.327 10.88 6.8 3.513 1.36 7.48 2.04 11.9 2.04Zm-35.36-36.21c0 9.407 3.116 17.453 9.35 24.14l49.81-49.47c-3.74-3.287-7.367-5.61-10.88-6.97-3.514-1.473-7.707-2.21-12.58-2.21-6.914 0-13.09 1.53-18.53 4.59-5.327 2.947-9.52 7.027-12.58 12.24-3.06 5.213-4.59 11.107-4.59 17.68Zm146.753-37.57-37.57 78.71-37.74-78.71h5.95l31.79 66.3 31.62-66.3h5.95Zm44.301 78.37c-7.253 0-13.996-1.813-20.23-5.44-6.233-3.627-11.163-8.5-14.79-14.62-3.626-6.233-5.44-12.92-5.44-20.06 0-7.14 1.814-13.77 5.44-19.89 3.627-6.233 8.557-11.163 14.79-14.79 6.234-3.627 12.977-5.44 20.23-5.44 7.367 0 14.337 1.983 20.91 5.95 6.574 3.853 11.164 8.897 13.77 15.13v-19.21h5.44v76.5h-5.44v-19.04c-3.06 6.347-7.82 11.447-14.28 15.3-6.346 3.74-13.146 5.61-20.4 5.61Zm.34-4.76c6.234 0 12.014-1.587 17.34-4.76 5.327-3.287 9.52-7.593 12.58-12.92 3.174-5.44 4.76-11.333 4.76-17.68 0-6.233-1.586-12.07-4.76-17.51-3.173-5.44-7.423-9.747-12.75-12.92-5.326-3.287-11.106-4.93-17.34-4.93-6.233 0-12.07 1.643-17.51 4.93-5.326 3.287-9.633 7.65-12.92 13.09-3.173 5.44-4.76 11.277-4.76 17.51 0 6.233 1.587 12.07 4.76 17.51 3.287 5.327 7.65 9.633 13.09 12.92 5.44 3.173 11.277 4.76 17.51 4.76Zm88.608 3.91c-8.387 0-15.357-2.55-20.91-7.65-5.44-5.1-8.16-12.127-8.16-21.08v-79.56h5.44v30.77h23.46v4.76h-23.46v44.03c0 7.48 2.21 13.373 6.63 17.68 4.533 4.193 10.2 6.29 17 6.29v4.76Zm50.68 1.7c-7.707 0-14.677-1.87-20.91-5.61-6.234-3.853-11.107-8.897-14.62-15.13-3.514-6.347-5.27-13.203-5.27-20.57 0-7.253 1.756-13.997 5.27-20.23 3.626-6.233 8.5-11.163 14.62-14.79 6.233-3.74 13.146-5.61 20.74-5.61 7.475 0 14.275 1.87 20.395 5.61 6.24 3.627 11.11 8.557 14.62 14.79 3.52 6.233 5.27 12.977 5.27 20.23 0 7.593-1.7 14.563-5.1 20.91-3.4 6.233-8.16 11.22-14.28 14.96-6 3.627-12.92 5.44-20.735 5.44Zm0-4.76c6.455 0 12.355-1.643 17.675-4.93 5.33-3.287 9.47-7.65 12.41-13.09 3.06-5.553 4.59-11.617 4.59-18.19 0-6.46-1.53-12.467-4.59-18.02-3.06-5.553-7.25-9.973-12.58-13.26-5.32-3.287-11.22-4.93-17.675-4.93-6.46 0-12.41 1.7-17.85 5.1-5.327 3.287-9.577 7.707-12.75 13.26-3.06 5.553-4.59 11.56-4.59 18.02 0 6.46 1.53 12.467 4.59 18.02 3.173 5.44 7.423 9.803 12.75 13.09 5.44 3.287 11.446 4.93 18.02 4.93Zm57.085-74.46h5.44v18.7c3.06-6.12 7.82-11.05 14.28-14.79 6.46-3.853 13.26-5.78 20.4-5.78 7.37 0 14.11 1.813 20.23 5.44 6.23 3.627 11.16 8.5 14.79 14.62 3.63 6.12 5.44 12.807 5.44 20.06 0 7.253-1.81 13.94-5.44 20.06-3.63 6.12-8.56 10.993-14.79 14.62-6.12 3.627-12.86 5.44-20.23 5.44-6.91 0-13.6-1.87-20.06-5.61-6.35-3.74-11.22-8.67-14.62-14.79v52.53h-5.44v-110.5Zm40.46 73.61c6.23 0 12.01-1.587 17.34-4.76 5.33-3.287 9.52-7.593 12.58-12.92 3.17-5.44 4.76-11.333 4.76-17.68 0-6.233-1.59-12.07-4.76-17.51-3.17-5.44-7.42-9.747-12.75-12.92-5.33-3.287-11.11-4.93-17.34-4.93s-12.07 1.643-17.51 4.93c-5.33 3.287-9.63 7.65-12.92 13.09-3.17 5.44-4.76 11.277-4.76 17.51 0 6.233 1.59 12.07 4.76 17.51 3.29 5.327 7.65 9.633 13.09 12.92 5.44 3.173 11.28 4.76 17.51 4.76Zm63.79-91.12c-1.59 0-3-.567-4.25-1.7-1.13-1.133-1.7-2.55-1.7-4.25 0-1.587.57-2.947 1.7-4.08 1.25-1.133 2.66-1.7 4.25-1.7 1.59 0 2.95.567 4.08 1.7 1.25 1.133 1.87 2.493 1.87 4.08 0 1.7-.62 3.117-1.87 4.25-1.13 1.133-2.49 1.7-4.08 1.7Zm-2.72 17.51h5.44v76.5h-5.44v-76.5Zm66.83 78.37c-7.26 0-14-1.813-20.23-5.44-6.24-3.627-11.17-8.5-14.79-14.62-3.63-6.233-5.44-12.92-5.44-20.06 0-7.14 1.81-13.77 5.44-19.89 3.62-6.233 8.55-11.163 14.79-14.79 6.23-3.627 12.97-5.44 20.23-5.44 7.36 0 14.33 1.983 20.91 5.95 6.57 3.853 11.16 8.897 13.77 15.13v-19.21h5.44v76.5h-5.44v-19.04c-3.06 6.347-7.82 11.447-14.28 15.3-6.35 3.74-13.15 5.61-20.4 5.61Zm.34-4.76c6.23 0 12.01-1.587 17.34-4.76 5.32-3.287 9.52-7.593 12.58-12.92 3.17-5.44 4.76-11.333 4.76-17.68 0-6.233-1.59-12.07-4.76-17.51-3.18-5.44-7.43-9.747-12.75-12.92-5.33-3.287-11.11-4.93-17.34-4.93-6.24 0-12.07 1.643-17.51 4.93-5.33 3.287-9.64 7.65-12.92 13.09-3.18 5.44-4.76 11.277-4.76 17.51 0 6.233 1.58 12.07 4.76 17.51 3.28 5.327 7.65 9.633 13.09 12.92 5.44 3.173 11.27 4.76 17.51 4.76Z"/></svg>