<svg width="414" height="122" viewBox="0 0 414 122" fill="none" xmlns="http://www.w3.org/2000/svg">
    <path d="M171.634 38.9668H173.554C180.714 38.9668 186.234 40.9268 190.114 44.8468C194.034 48.7268 195.994 54.2668 195.994 61.4668C195.994 65.5868 194.994 69.3668 192.994 72.8068C190.994 76.2468 188.274 78.9668 184.834 80.9668C181.434 82.9668 177.674 83.9668 173.554 83.9668H171.634V38.9668ZM174.034 82.1068C177.714 82.1068 181.074 81.2068 184.114 79.4068C187.154 77.5668 189.554 75.0668 191.314 71.9068C193.114 68.7468 194.014 65.2668 194.014 61.4668C194.014 54.8268 192.274 49.7268 188.794 46.1668C185.354 42.5668 180.434 40.7668 174.034 40.7668H173.554V82.1068H174.034ZM215.748 83.0068C217.828 83.0068 219.808 82.4668 221.688 81.3868C223.568 80.3068 225.128 78.8268 226.368 76.9468V80.0068C224.888 81.6468 223.268 82.8468 221.508 83.6068C219.748 84.3268 217.748 84.6868 215.508 84.6868C213.028 84.6868 210.688 84.0268 208.488 82.7068C206.328 81.3868 204.588 79.6268 203.268 77.4268C201.988 75.2268 201.348 72.8868 201.348 70.4068C201.348 67.7268 201.988 65.3268 203.268 63.2068C204.548 61.0468 206.288 59.3668 208.488 58.1668C210.728 56.9668 213.208 56.3668 215.928 56.3668C220.088 56.3668 223.628 58.0068 226.548 61.2868L207.708 79.8868C209.028 80.9668 210.308 81.7668 211.548 82.2868C212.788 82.7668 214.188 83.0068 215.748 83.0068ZM203.268 70.2268C203.268 73.5468 204.368 76.3868 206.568 78.7468L224.148 61.2868C222.828 60.1268 221.548 59.3068 220.308 58.8268C219.068 58.3068 217.588 58.0468 215.868 58.0468C213.428 58.0468 211.248 58.5868 209.328 59.6668C207.448 60.7068 205.968 62.1468 204.888 63.9868C203.808 65.8268 203.268 67.9068 203.268 70.2268ZM255.063 56.9668L241.803 84.7468L228.483 56.9668H230.583L241.803 80.3668L252.963 56.9668H255.063ZM270.699 84.6268C268.139 84.6268 265.759 83.9868 263.559 82.7068C261.359 81.4268 259.619 79.7068 258.339 77.5468C257.059 75.3468 256.419 72.9868 256.419 70.4668C256.419 67.9468 257.059 65.6068 258.339 63.4468C259.619 61.2468 261.359 59.5068 263.559 58.2268C265.759 56.9468 268.139 56.3068 270.699 56.3068C273.299 56.3068 275.759 57.0068 278.079 58.4068C280.399 59.7668 282.019 61.5468 282.939 63.7468V56.9668H284.859V83.9668H282.939V77.2468C281.859 79.4868 280.179 81.2868 277.899 82.6468C275.659 83.9668 273.259 84.6268 270.699 84.6268ZM270.819 82.9468C273.019 82.9468 275.059 82.3868 276.939 81.2668C278.819 80.1068 280.299 78.5868 281.379 76.7068C282.499 74.7868 283.059 72.7068 283.059 70.4668C283.059 68.2668 282.499 66.2068 281.379 64.2868C280.259 62.3668 278.759 60.8468 276.879 59.7268C274.999 58.5668 272.959 57.9868 270.759 57.9868C268.559 57.9868 266.499 58.5668 264.579 59.7268C262.699 60.8868 261.179 62.4268 260.019 64.3468C258.899 66.2668 258.339 68.3268 258.339 70.5268C258.339 72.7268 258.899 74.7868 260.019 76.7068C261.179 78.5868 262.719 80.1068 264.639 81.2668C266.559 82.3868 268.619 82.9468 270.819 82.9468ZM302.092 84.3268C299.132 84.3268 296.672 83.4268 294.712 81.6268C292.792 79.8268 291.832 77.3468 291.832 74.1868V46.1068H293.752V56.9668H302.032V58.6468H293.752V74.1868C293.752 76.8268 294.532 78.9068 296.092 80.4268C297.692 81.9068 299.692 82.6468 302.092 82.6468V84.3268ZM319.979 84.9268C317.259 84.9268 314.799 84.2668 312.599 82.9468C310.399 81.5868 308.679 79.8068 307.439 77.6068C306.199 75.3668 305.579 72.9468 305.579 70.3468C305.579 67.7868 306.199 65.4068 307.439 63.2068C308.719 61.0068 310.439 59.2668 312.599 57.9868C314.799 56.6668 317.239 56.0068 319.919 56.0068C322.559 56.0068 324.959 56.6668 327.119 57.9868C329.319 59.2668 331.039 61.0068 332.279 63.2068C333.519 65.4068 334.139 67.7868 334.139 70.3468C334.139 73.0268 333.539 75.4868 332.339 77.7268C331.139 79.9268 329.459 81.6868 327.299 83.0068C325.179 84.2868 322.739 84.9268 319.979 84.9268ZM319.979 83.2468C322.259 83.2468 324.339 82.6668 326.219 81.5068C328.099 80.3468 329.559 78.8068 330.599 76.8868C331.679 74.9268 332.219 72.7868 332.219 70.4668C332.219 68.1868 331.679 66.0668 330.599 64.1068C329.519 62.1468 328.039 60.5868 326.159 59.4268C324.279 58.2668 322.199 57.6868 319.919 57.6868C317.639 57.6868 315.539 58.2868 313.619 59.4868C311.739 60.6468 310.239 62.2068 309.119 64.1668C308.039 66.1268 307.499 68.2468 307.499 70.5268C307.499 72.8068 308.039 74.9268 309.119 76.8868C310.239 78.8068 311.739 80.3468 313.619 81.5068C315.539 82.6668 317.659 83.2468 319.979 83.2468ZM340.127 56.9668H342.047V63.5668C343.127 61.4068 344.807 59.6668 347.087 58.3468C349.367 56.9868 351.767 56.3068 354.287 56.3068C356.887 56.3068 359.267 56.9468 361.427 58.2268C363.627 59.5068 365.367 61.2268 366.647 63.3868C367.927 65.5468 368.567 67.9068 368.567 70.4668C368.567 73.0268 367.927 75.3868 366.647 77.5468C365.367 79.7068 363.627 81.4268 361.427 82.7068C359.267 83.9868 356.887 84.6268 354.287 84.6268C351.847 84.6268 349.487 83.9668 347.207 82.6468C344.967 81.3268 343.247 79.5868 342.047 77.4268V95.9668H340.127V56.9668ZM354.407 82.9468C356.607 82.9468 358.647 82.3868 360.527 81.2668C362.407 80.1068 363.887 78.5868 364.967 76.7068C366.087 74.7868 366.647 72.7068 366.647 70.4668C366.647 68.2668 366.087 66.2068 364.967 64.2868C363.847 62.3668 362.347 60.8468 360.467 59.7268C358.587 58.5668 356.547 57.9868 354.347 57.9868C352.147 57.9868 350.087 58.5668 348.167 59.7268C346.287 60.8868 344.767 62.4268 343.607 64.3468C342.487 66.2668 341.927 68.3268 341.927 70.5268C341.927 72.7268 342.487 74.7868 343.607 76.7068C344.767 78.5868 346.307 80.1068 348.227 81.2668C350.147 82.3868 352.207 82.9468 354.407 82.9468ZM376.92 50.7868C376.36 50.7868 375.86 50.5868 375.42 50.1868C375.02 49.7868 374.82 49.2868 374.82 48.6868C374.82 48.1268 375.02 47.6468 375.42 47.2468C375.86 46.8468 376.36 46.6468 376.92 46.6468C377.48 46.6468 377.96 46.8468 378.36 47.2468C378.8 47.6468 379.02 48.1268 379.02 48.6868C379.02 49.2868 378.8 49.7868 378.36 50.1868C377.96 50.5868 377.48 50.7868 376.92 50.7868ZM375.96 56.9668H377.88V83.9668H375.96V56.9668ZM399.546 84.6268C396.986 84.6268 394.606 83.9868 392.406 82.7068C390.206 81.4268 388.466 79.7068 387.186 77.5468C385.906 75.3468 385.266 72.9868 385.266 70.4668C385.266 67.9468 385.906 65.6068 387.186 63.4468C388.466 61.2468 390.206 59.5068 392.406 58.2268C394.606 56.9468 396.986 56.3068 399.546 56.3068C402.146 56.3068 404.606 57.0068 406.926 58.4068C409.246 59.7668 410.866 61.5468 411.786 63.7468V56.9668H413.706V83.9668H411.786V77.2468C410.706 79.4868 409.026 81.2868 406.746 82.6468C404.506 83.9668 402.106 84.6268 399.546 84.6268ZM399.666 82.9468C401.866 82.9468 403.906 82.3868 405.786 81.2668C407.666 80.1068 409.146 78.5868 410.226 76.7068C411.346 74.7868 411.906 72.7068 411.906 70.4668C411.906 68.2668 411.346 66.2068 410.226 64.2868C409.106 62.3668 407.606 60.8468 405.726 59.7268C403.846 58.5668 401.806 57.9868 399.606 57.9868C397.406 57.9868 395.346 58.5668 393.426 59.7268C391.546 60.8868 390.026 62.4268 388.866 64.3468C387.746 66.2668 387.186 68.3268 387.186 70.5268C387.186 72.7268 387.746 74.7868 388.866 76.7068C390.026 78.5868 391.566 80.1068 393.486 81.2668C395.406 82.3868 397.466 82.9468 399.666 82.9468Z" fill="white"/>
    <path d="M11.4696 14.4571L12.2194 19.1762L23.5208 10.175L24.1132 12.4541L13.0318 22.45L12.2194 27.9668L21.6262 44.8081L43.3379 54.3844L33.5062 43.3388L34.571 35.2198L36.4543 29.396L41.3108 23.9194L43.3316 25.4679L38.6026 29.396L36.4543 35.2131L35.7745 43.3321L49.0779 55.9999L53.9231 58.3836L49.0779 44.8014V31.041L53.9231 22.442L55.4141 25.4679L52.5322 32.4795V44.8014L62.5863 62.6442L67.0141 64.8227L57.0875 72.447L19.7203 52.5718L7.25298 31.041L4.39359 13.7465L0.104492 1.96889L4.39359 2.95025L7.25298 12.5198L19.0892 0.742188H22.0886L11.4696 14.4571Z" fill="#C39676"/>
    <path d="M134.53 14.4572L133.78 19.1763L122.479 10.1751L121.887 12.4542L132.968 22.4502L133.78 27.9669L124.38 44.8015L102.668 54.3778L112.5 43.3322L111.435 35.2132L109.549 29.3961L104.693 23.9195L102.668 25.468L106.966 29.3961L109.549 35.2132V43.3322L96.9268 56L92.0816 58.3837L96.9268 44.8015V31.0411L92.0816 22.4421L90.5906 25.468L93.465 32.4849V44.8015L83.4146 62.6443L78.9868 64.8228L88.9122 72.4458L126.278 52.572L138.745 31.0411L141.605 13.7466L145.894 1.969L141.605 2.95036L138.745 12.5199L126.909 0.738281H123.91L134.53 14.4572Z" fill="#C39676"/>
    <path d="M128.171 48.3476L84.4234 68.9602L89.2557 72.3425L126.156 52.726L128.171 48.3476Z" fill="#A47F64"/>
    <path d="M139.668 25.4336L122.41 52.0505L126.276 52.514L138.953 31.1412L139.668 25.4336Z" fill="#A47F64"/>
    <path d="M56.5387 72.201L66.8315 64.5029H80.0112L89.218 72.201L91.825 85.4345L83.6367 106.705L83.2305 111.49L72.6078 118.361L62.6599 111.49L62.3149 106.705L54.4229 85.2361L56.5387 72.201Z" fill="#A1755C"/>
    <path d="M17.2386 48.3479L60.9858 68.9605L56.5695 72.2715L19.6646 52.583L17.2386 48.3479Z" fill="#A47F64"/>
    <path d="M89.6795 72.6077L79.8194 64.3993L74.7709 102.221L72.6446 118.355L83.2053 111.504L83.6393 106.65L91.8005 85.4144L89.6795 72.6077Z" fill="#7D5B48"/>
    <path d="M26.9491 64.3252L47.7014 80.1951L54.959 85.7358L57.239 72.1653L26.9491 64.3252Z" fill="#7D5B48"/>
    <path d="M27.668 64.6191L32.8149 75.738L42.7898 83.4625L54.8147 85.2137L27.668 64.6191Z" fill="#FCDBB1"/>
    <path d="M119.008 63.7549L98.5146 80.0321L91.349 85.7217L88.8401 72.1903L119.008 63.7549Z" fill="#7D5B48"/>
    <path d="M118.297 64.0561L113.367 75.3544L103.599 83.3297L91.7077 85.331L118.297 64.0561Z" fill="#FCDBB1"/>
    <path d="M56.4802 72.2301L66.6309 64.6587L70.8931 102.096L72.6024 118.356L62.5839 111.465L62.5796 106.749L54.1973 84.5949L56.4802 72.2301Z" fill="#7D5B48"/>
    <path d="M72.6359 118.363L61.0845 68.8583L66.6696 64.3815L72.6359 118.363Z" fill="#88634F"/>
    <path d="M72.6686 118.271L85.6344 69.1998L79.8062 64.3799L72.6686 118.271Z" fill="#88634F"/>
    <path d="M6.33222 25.4356L23.5908 52.0524L19.7249 52.5159L7.04798 31.1432L6.33222 25.4356Z" fill="#A47F64"/>
</svg>