<svg xmlns="http://www.w3.org/2000/svg" fill="none" viewBox="0 0 419 121"><path fill="#000" d="M172.241 38.5h1.92c7.16 0 12.68 1.96 16.56 5.88 3.92 3.88 5.88 9.42 5.88 16.62 0 4.12-1 7.9-3 11.34-2 3.44-4.72 6.16-8.16 8.16-3.4 2-7.16 3-11.28 3h-1.92v-45Zm2.4 43.14c3.68 0 7.04-.9 10.08-2.7 3.04-1.84 5.44-4.34 7.2-7.5 1.8-3.16 2.7-6.64 2.7-10.44 0-6.64-1.74-11.74-5.22-15.3-3.44-3.6-8.36-5.4-14.76-5.4h-.48v41.34h.48Zm41.714.9c2.08 0 4.06-.54 5.94-1.62 1.88-1.08 3.44-2.56 4.68-4.44v3.06c-1.48 1.64-3.1 2.84-4.86 3.6-1.76.72-3.76 1.08-6 1.08-2.48 0-4.82-.66-7.02-1.98-2.16-1.32-3.9-3.08-5.22-5.28-1.28-2.2-1.92-4.54-1.92-7.02 0-2.68.64-5.08 1.92-7.2 1.28-2.16 3.02-3.84 5.22-5.04 2.24-1.2 4.72-1.8 7.44-1.8 4.16 0 7.7 1.64 10.62 4.92l-18.84 18.6c1.32 1.08 2.6 1.88 3.84 2.4 1.24.48 2.64.72 4.2.72Zm-12.48-12.78c0 3.32 1.1 6.16 3.3 8.52l17.58-17.46c-1.32-1.16-2.6-1.98-3.84-2.46-1.24-.52-2.72-.78-4.44-.78-2.44 0-4.62.54-6.54 1.62a11.52 11.52 0 0 0-4.44 4.32c-1.08 1.84-1.62 3.92-1.62 6.24ZM255.67 56.5l-13.26 27.78-13.32-27.78h2.1l11.22 23.4 11.16-23.4h2.1Zm15.636 27.66c-2.56 0-4.94-.64-7.14-1.92-2.2-1.28-3.94-3-5.22-5.16-1.28-2.2-1.92-4.56-1.92-7.08 0-2.52.64-4.86 1.92-7.02 1.28-2.2 3.02-3.94 5.22-5.22 2.2-1.28 4.58-1.92 7.14-1.92 2.6 0 5.06.7 7.38 2.1 2.32 1.36 3.94 3.14 4.86 5.34V56.5h1.92v27h-1.92v-6.72c-1.08 2.24-2.76 4.04-5.04 5.4-2.24 1.32-4.64 1.98-7.2 1.98Zm.12-1.68c2.2 0 4.24-.56 6.12-1.68 1.88-1.16 3.36-2.68 4.44-4.56 1.12-1.92 1.68-4 1.68-6.24 0-2.2-.56-4.26-1.68-6.18-1.12-1.92-2.62-3.44-4.5-4.56a11.44 11.44 0 0 0-6.12-1.74c-2.2 0-4.26.58-6.18 1.74a13.62 13.62 0 0 0-4.56 4.62 12.061 12.061 0 0 0-1.68 6.18c0 2.2.56 4.26 1.68 6.18 1.16 1.88 2.7 3.4 4.62 4.56 1.92 1.12 3.98 1.68 6.18 1.68Zm31.273 1.38c-2.96 0-5.42-.9-7.38-2.7-1.92-1.8-2.88-4.28-2.88-7.44V45.64h1.92V56.5h8.28v1.68h-8.28v15.54c0 2.64.78 4.72 2.34 6.24 1.6 1.48 3.6 2.22 6 2.22v1.68Zm17.887.6c-2.72 0-5.18-.66-7.38-1.98-2.2-1.36-3.92-3.14-5.16-5.34-1.24-2.24-1.86-4.66-1.86-7.26 0-2.56.62-4.94 1.86-7.14 1.28-2.2 3-3.94 5.16-5.22 2.2-1.32 4.64-1.98 7.32-1.98 2.64 0 5.04.66 7.2 1.98 2.2 1.28 3.92 3.02 5.16 5.22 1.24 2.2 1.86 4.58 1.86 7.14 0 2.68-.6 5.14-1.8 7.38-1.2 2.2-2.88 3.96-5.04 5.28-2.12 1.28-4.56 1.92-7.32 1.92Zm0-1.68c2.28 0 4.36-.58 6.24-1.74 1.88-1.16 3.34-2.7 4.38-4.62 1.08-1.96 1.62-4.1 1.62-6.42 0-2.28-.54-4.4-1.62-6.36a12.477 12.477 0 0 0-4.44-4.68c-1.88-1.16-3.96-1.74-6.24-1.74-2.28 0-4.38.6-6.3 1.8-1.88 1.16-3.38 2.72-4.5 4.68-1.08 1.96-1.62 4.08-1.62 6.36 0 2.28.54 4.4 1.62 6.36 1.12 1.92 2.62 3.46 4.5 4.62 1.92 1.16 4.04 1.74 6.36 1.74Zm20.148-26.28h1.92v6.6c1.08-2.16 2.76-3.9 5.04-5.22 2.28-1.36 4.68-2.04 7.2-2.04 2.6 0 4.98.64 7.14 1.92 2.2 1.28 3.94 3 5.22 5.16 1.28 2.16 1.92 4.52 1.92 7.08 0 2.56-.64 4.92-1.92 7.08-1.28 2.16-3.02 3.88-5.22 5.16-2.16 1.28-4.54 1.92-7.14 1.92-2.44 0-4.8-.66-7.08-1.98-2.24-1.32-3.96-3.06-5.16-5.22V95.5h-1.92v-39Zm14.28 25.98c2.2 0 4.24-.56 6.12-1.68 1.88-1.16 3.36-2.68 4.44-4.56 1.12-1.92 1.68-4 1.68-6.24 0-2.2-.56-4.26-1.68-6.18-1.12-1.92-2.62-3.44-4.5-4.56a11.44 11.44 0 0 0-6.12-1.74c-2.2 0-4.26.58-6.18 1.74a13.62 13.62 0 0 0-4.56 4.62 12.061 12.061 0 0 0-1.68 6.18c0 2.2.56 4.26 1.68 6.18 1.16 1.88 2.7 3.4 4.62 4.56 1.92 1.12 3.98 1.68 6.18 1.68Zm22.514-32.16c-.56 0-1.06-.2-1.5-.6-.4-.4-.6-.9-.6-1.5 0-.56.2-1.04.6-1.44.44-.4.94-.6 1.5-.6s1.04.2 1.44.6c.44.4.66.88.66 1.44 0 .6-.22 1.1-.66 1.5-.4.4-.88.6-1.44.6Zm-.96 6.18h1.92v27h-1.92v-27Zm23.586 27.66c-2.56 0-4.94-.64-7.14-1.92-2.2-1.28-3.94-3-5.22-5.16-1.28-2.2-1.92-4.56-1.92-7.08 0-2.52.64-4.86 1.92-7.02 1.28-2.2 3.02-3.94 5.22-5.22 2.2-1.28 4.58-1.92 7.14-1.92 2.6 0 5.06.7 7.38 2.1 2.32 1.36 3.94 3.14 4.86 5.34V56.5h1.92v27h-1.92v-6.72c-1.08 2.24-2.76 4.04-5.04 5.4-2.24 1.32-4.64 1.98-7.2 1.98Zm.12-1.68c2.2 0 4.24-.56 6.12-1.68 1.88-1.16 3.36-2.68 4.44-4.56 1.12-1.92 1.68-4 1.68-6.24 0-2.2-.56-4.26-1.68-6.18-1.12-1.92-2.62-3.44-4.5-4.56a11.44 11.44 0 0 0-6.12-1.74c-2.2 0-4.26.58-6.18 1.74a13.62 13.62 0 0 0-4.56 4.62 12.061 12.061 0 0 0-1.68 6.18c0 2.2.56 4.26 1.68 6.18 1.16 1.88 2.7 3.4 4.62 4.56 1.92 1.12 3.98 1.68 6.18 1.68Z"/><path fill="#C39676" d="m12.095 13.99.75 4.72 11.302-9.002.592 2.28-11.081 9.995-.813 5.517 9.407 16.842 21.712 9.576-9.832-11.046 1.065-8.119 1.883-5.824 4.857-5.476L43.957 25l-4.729 3.928-2.148 5.817-.68 8.12 13.304 12.667 4.845 2.384-4.845-13.582v-13.76l4.845-8.6L56.039 25l-2.881 7.012v12.322l10.054 17.843 4.428 2.178-9.927 7.625-37.367-19.876L7.88 30.575 5.019 13.28.73 1.502l4.29.982 2.859 9.57L19.715.275h3L12.095 13.99Zm123.061 0-.75 4.72-11.301-9.001-.593 2.279 11.082 9.996.812 5.517-9.4 16.834-21.712 9.576 9.832-11.045-1.065-8.12-1.886-5.816-4.857-5.477-2.024 1.549 4.298 3.928 2.583 5.817v8.119L97.553 55.534l-4.846 2.383 4.846-13.582v-13.76l-4.846-8.6-1.49 3.027 2.874 7.017v12.316L84.04 62.178l-4.428 2.178 9.925 7.624 37.366-19.874 12.467-21.531 2.86-17.295 4.289-11.777-4.289.981-2.86 9.57L127.535.272h-2.999l10.62 13.719Z"/><path fill="#A47F64" d="M128.796 47.882 85.049 68.494l4.833 3.383 36.9-19.617 2.014-4.378Z"/><path fill="#A47F64" d="m140.294 24.968-17.258 26.616 3.866.464 12.677-21.373.715-5.707Z"/><path fill="#A1755C" d="m57.164 71.734 10.293-7.698h13.18l9.207 7.698 2.607 13.234-8.188 21.271-.407 4.784-10.622 6.871-9.948-6.871-.345-4.784-7.892-21.47 2.115-13.035Z"/><path fill="#A47F64" d="m17.864 47.882 43.748 20.612-4.417 3.311-36.904-19.688-2.427-4.235Z"/><path fill="#7D5B48" d="m90.305 72.142-9.86-8.208-5.048 37.822-2.127 16.133 10.561-6.851.434-4.854 8.161-21.235-2.12-12.807Zm-62.73-8.283 20.752 15.87 7.258 5.54 2.28-13.57-30.29-7.84Z"/><path fill="#FCDBB1" d="M28.294 64.153 33.44 75.27l9.975 7.725 12.025 1.751-27.147-20.594Z"/><path fill="#7D5B48" d="M119.634 63.288 99.14 79.566l-7.165 5.69-2.509-13.532 30.168-8.436Z"/><path fill="#FCDBB1" d="m118.923 63.59-4.93 11.298-9.768 7.976-11.891 2 26.589-21.274Z"/><path fill="#7D5B48" d="m57.106 71.764 10.15-7.572 4.263 37.438 1.71 16.26-10.02-6.891-.004-4.717-8.382-22.153 2.283-12.365Z"/><path fill="#88634F" d="M73.262 117.897 61.71 68.392l5.586-4.477 5.966 53.982Zm.032-.093L86.26 68.733l-5.828-4.82-7.138 53.891Z"/><path fill="#A47F64" d="m6.958 24.97 17.259 26.616-3.866.464L7.674 30.677l-.716-5.707Z"/></svg>