<svg xmlns="http://www.w3.org/2000/svg" fill="none" viewBox="0 0 131 126"><path fill="#4BBBE3" d="M12.961 121.748c7.516 4.77 16.906 4.528 25.935 3.41a192.58 192.58 0 0 0 3.75-.505h.025c.06-.009.12-.018.176-.024l.764-.112-.053.117-.17.362.184-.362.056-.109c2.123-4.167 4.227-8.482 4.569-13.13.353-4.824-1.669-10.156-6.06-12.283a8.678 8.678 0 0 0-1.804-.637 9.385 9.385 0 0 0-.785-.152 9.323 9.323 0 0 0-4.809.48 9.222 9.222 0 0 0-3.905 2.817 9.08 9.08 0 0 0-1.93 4.383 9.043 9.043 0 0 0 .572 4.748c-3.813-3.473-3.464-9.455-2.488-14.49.975-5.037 2.187-10.648-.597-14.976a9.94 9.94 0 0 0-3.003-2.88 10.056 10.056 0 0 0-3.931-1.41 13.586 13.586 0 0 0-9.834 2.153C4.476 82.754 2.084 89.2 1.537 95.416c-.895 9.998 2.88 20.908 11.424 26.332Z"/><path fill="#fff" d="M14.429 105.708A22.47 22.47 0 0 0 16.355 112c.87 1.763 2 3.387 3.355 4.818a25.494 25.494 0 0 0 10.153 6.45 36.967 36.967 0 0 0 9.033 1.891 193.96 193.96 0 0 0 3.75-.505h.025c.06-.009.12-.018.176-.024l.765-.112-.054.117-.17.362.184-.362.057-.109a19.813 19.813 0 0 1-6.612-12.41 19.715 19.715 0 0 1 3.317-13.64 9.375 9.375 0 0 0-.785-.152 20.893 20.893 0 0 0-1.758 3.267 20.345 20.345 0 0 0-1.092 12.86 20.958 20.958 0 0 0 5.943 10.177c-.243 0-.489-.01-.728-.019a37.564 37.564 0 0 1-13.323-2.61 23.68 23.68 0 0 1-9.259-6.724 21.059 21.059 0 0 1-4.402-11.413 48.577 48.577 0 0 1 .682-13.345 55.35 55.35 0 0 1 4.035-13 .396.396 0 0 0-.19-.52.348.348 0 0 0-.26-.039.304.304 0 0 0-.188.178 55.94 55.94 0 0 0-4.414 15.009 44.932 44.932 0 0 0-.166 13.563Z"/><path fill="#4BBBE3" d="M114.51 121.862c-7.516 4.77-16.906 4.528-25.935 3.41-1.26-.156-2.512-.327-3.75-.505H84.8a4.088 4.088 0 0 0-.176-.024l-.764-.112.053.117.17.362-.184-.362-.056-.109c-2.123-4.167-4.227-8.482-4.569-13.13-.353-4.824 1.669-10.156 6.06-12.283a8.676 8.676 0 0 1 1.804-.637c.258-.063.52-.111.785-.152a9.325 9.325 0 0 1 4.809.479 9.224 9.224 0 0 1 3.905 2.817 9.087 9.087 0 0 1 1.93 4.384 9.044 9.044 0 0 1-.572 4.748c3.814-3.473 3.464-9.455 2.488-14.491-.975-5.036-2.187-10.647.597-14.975a9.937 9.937 0 0 1 3.003-2.88 10.056 10.056 0 0 1 3.931-1.41l.26-.04a13.586 13.586 0 0 1 9.574 2.193c5.147 3.606 7.539 10.05 8.086 16.268.892 9.998-2.88 20.908-11.424 26.332Z"/><path fill="#fff" d="M113.042 105.822a22.507 22.507 0 0 1-1.927 6.292c-.869 1.762-2 3.386-3.354 4.818a25.523 25.523 0 0 1-10.153 6.45 37.061 37.061 0 0 1-9.033 1.891 192.58 192.58 0 0 1-3.75-.505H84.8a4.092 4.092 0 0 0-.176-.024l-.765-.112.053.117.17.362-.184-.362-.056-.109a19.816 19.816 0 0 0 6.612-12.411 19.713 19.713 0 0 0-3.317-13.64c.258-.062.52-.11.785-.151a20.872 20.872 0 0 1 1.758 3.267 20.345 20.345 0 0 1 1.092 12.86 20.963 20.963 0 0 1-5.943 10.177c.243 0 .488-.01.728-.019a37.608 37.608 0 0 0 13.322-2.61 23.707 23.707 0 0 0 9.26-6.724 21.066 21.066 0 0 0 4.401-11.413 48.562 48.562 0 0 0-.682-13.346 55.337 55.337 0 0 0-4.035-13 .398.398 0 0 1 .19-.52.349.349 0 0 1 .26-.038.306.306 0 0 1 .189.178 55.906 55.906 0 0 1 4.414 15.009c.741 4.487.797 9.059.166 13.563Z"/><path fill="#3F3D56" d="M95.014 30.461h-.695v-18.85c0-1.432-.286-2.851-.84-4.175a10.902 10.902 0 0 0-2.39-3.54 11.035 11.035 0 0 0-3.578-2.364 11.13 11.13 0 0 0-4.22-.83H42.926c-2.925 0-5.73 1.149-7.798 3.195a10.852 10.852 0 0 0-3.23 7.714v103.411c0 2.894 1.162 5.669 3.23 7.715a11.087 11.087 0 0 0 7.798 3.195H83.29c2.925 0 5.73-1.149 7.798-3.195a10.852 10.852 0 0 0 3.23-7.715V43.878h.695l.001-13.417Z"/><path fill="#fff" d="M83.695 3.538h-5.264a3.833 3.833 0 0 1-.375 3.622 3.898 3.898 0 0 1-1.408 1.257 3.946 3.946 0 0 1-1.84.454h-23.13a3.946 3.946 0 0 1-1.839-.454 3.899 3.899 0 0 1-1.407-1.257 3.846 3.846 0 0 1-.376-3.622h-4.92a8.28 8.28 0 0 0-5.823 2.387 8.104 8.104 0 0 0-2.411 5.761v103.26c0 1.07.213 2.13.627 3.118a8.146 8.146 0 0 0 1.785 2.644 8.26 8.26 0 0 0 5.823 2.385h40.56a8.279 8.279 0 0 0 5.823-2.386 8.104 8.104 0 0 0 2.412-5.761V11.686c0-1.07-.213-2.13-.627-3.118a8.142 8.142 0 0 0-1.785-2.643 8.241 8.241 0 0 0-2.672-1.767 8.31 8.31 0 0 0-3.15-.62h-.003Z"/><path fill="#3F3D56" d="M130.512 125.945H.791a.182.182 0 0 1-.157-.18.18.18 0 0 1 .045-.118.189.189 0 0 1 .112-.062h129.721a.183.183 0 0 1 .113.299.184.184 0 0 1-.113.061ZM42.097 85.808h6.165v1.194h-4.915v3.611h4.44v1.18h-4.44v4.567h-1.251V85.808Zm7.655 0h1.266v10.55h-1.266v-10.55Zm3.805 9.99a3.186 3.186 0 0 1-.722-2.225v-4.73H54.1v4.539a2.183 2.183 0 0 0 .492 1.577 1.762 1.762 0 0 0 1.325.5c.406.007.804-.112 1.139-.339.33-.224.597-.528.774-.884.182-.356.277-.75.276-1.15v-4.243h1.266v7.515H58.17v-1.091h-.06c-.236.4-.581.727-.997.943a2.948 2.948 0 0 1-1.46.383 2.693 2.693 0 0 1-2.095-.795Zm9.831.646a1.95 1.95 0 0 1-.663-.4 1.84 1.84 0 0 1-.447-.66 2.475 2.475 0 0 1-.148-.915v-4.486h-1.325v-1.135h1.325v-2.122h1.265v2.122h1.847v1.135h-1.847v4.188a1.5 1.5 0 0 0 .239.934 1.01 1.01 0 0 0 .82.332c.296-.002.586-.09.833-.25v1.22a1.964 1.964 0 0 1-.453.147 3.257 3.257 0 0 1-.59.044 2.409 2.409 0 0 1-.856-.154Zm5.375 0a1.949 1.949 0 0 1-.663-.4 1.839 1.839 0 0 1-.447-.66 2.476 2.476 0 0 1-.148-.915v-4.486H66.18v-1.135h1.325v-2.122h1.265v2.122h1.847v1.135H68.77v4.188a1.5 1.5 0 0 0 .238.934 1.01 1.01 0 0 0 .82.332c.296-.002.586-.09.833-.25v1.22a1.954 1.954 0 0 1-.454.147 3.274 3.274 0 0 1-.588.044 2.43 2.43 0 0 1-.856-.154Zm4.492-.366a3.593 3.593 0 0 1-1.347-1.42 4.269 4.269 0 0 1-.484-2.042 4.442 4.442 0 0 1 .453-2 3.638 3.638 0 0 1 1.29-1.458 3.464 3.464 0 0 1 1.936-.545 3.685 3.685 0 0 1 1.936.493c.543.326.98.799 1.259 1.363a4.35 4.35 0 0 1 .44 1.99c.001.13-.014.258-.045.383H72.69c.012.51.155 1.007.418 1.445.227.374.554.68.945.884.369.194.78.295 1.198.295a2.49 2.49 0 0 0 1.322-.356c.398-.24.72-.586.927-.999l1.073.516a3.794 3.794 0 0 1-1.334 1.444 4.04 4.04 0 0 1-3.985.007Zm4.144-4.273a2.411 2.411 0 0 0-.269-.943 2.035 2.035 0 0 0-.752-.8 2.375 2.375 0 0 0-1.288-.324 2.153 2.153 0 0 0-1.517.567 2.721 2.721 0 0 0-.808 1.5h4.634Zm2.81-2.962h1.207v1.208h.06a2.05 2.05 0 0 1 .863-1.03c.396-.266.863-.41 1.34-.414.307-.007.61.049.894.163v1.341a2.397 2.397 0 0 0-1.072-.235 1.785 1.785 0 0 0-1.011.31 2.26 2.26 0 0 0-.738.834 2.39 2.39 0 0 0-.276 1.13v4.21h-1.265v-7.516h-.002Z"/><path fill="#01579B" d="m65.743 61.533 16.57 16.471-15.65-.18-5.824-5.761 4.904-10.53Z"/><path fill="url(#undraw_flutter_dev_wvqj__a)" d="m73.216 68.21-11.624 3.853 7.11-8.374 4.514 4.52Z"/><path fill="#54C5F8" d="M83.745 27.69 50.618 60.468l-7.797-7.713L68.157 27.69h15.588ZM53.491 64.41l13.645-13.5h15.65L61.312 71.976l-7.82-7.566Z"/><path fill="#29B6F6" d="m61.242 56.61 7.798 7.712-7.724 7.74-7.825-7.561 7.751-7.89Z"/><defs><linearGradient id="undraw_flutter_dev_wvqj__a" x1="63.568" x2="67.181" y1="73.26" y2="66.376" gradientUnits="userSpaceOnUse"><stop stop-color="#1A237E" stop-opacity=".4"/><stop offset="1" stop-color="#1A237E" stop-opacity="0"/></linearGradient></defs></svg>