<svg xmlns="http://www.w3.org/2000/svg" fill="none" viewBox="0 0 133 78"><path fill="#fff" d="M128.287 10.756h-113a4 4 0 0 0-4 4v59a4 4 0 0 0 4 4h113a4 4 0 0 0 4-4v-59a4 4 0 0 0-4-4Z"/><path fill="#F2F2F2" d="M23.256 10.545h-8.94a3.244 3.244 0 0 0-3.24 3.24v9.693a11.43 11.43 0 1 1 12.18-12.933Z"/><path fill="#3F3D56" d="M128.789 10.203H14.317a3.586 3.586 0 0 0-3.583 3.583v60.392a3.587 3.587 0 0 0 3.583 3.583h114.472a3.585 3.585 0 0 0 3.583-3.583V13.786a3.59 3.59 0 0 0-3.583-3.583Zm3.241 63.975a3.247 3.247 0 0 1-3.241 3.24H14.317a3.244 3.244 0 0 1-3.241-3.24V13.786a3.244 3.244 0 0 1 3.24-3.241H128.79a3.245 3.245 0 0 1 3.241 3.24v60.393Z"/><path fill="#3F3D56" d="M123.16 19.99H19.947a.171.171 0 0 1 0-.342H123.16a.17.17 0 0 1 .129.046.17.17 0 0 1-.129.296Z"/><path fill="#3F3D56" d="M49.12 70.425a.17.17 0 0 1-.171-.171V14.127a.171.171 0 0 1 .34 0v56.127a.171.171 0 0 1-.17.17Zm25.76 0a.171.171 0 0 1-.171-.171V14.127a.171.171 0 0 1 .341 0v56.127a.171.171 0 0 1-.17.17Zm25.761-.001a.172.172 0 0 1-.171-.17V14.125a.175.175 0 0 1 .102-.17.173.173 0 0 1 .194.041.175.175 0 0 1 .045.13v56.126a.17.17 0 0 1-.17.171Z"/><path fill="#F695AC" d="M32.556 37.6h-6.234a.769.769 0 0 1-.768-.769v-7.356a.768.768 0 0 1 .768-.768h6.234a.769.769 0 0 1 .768.768v7.356a.768.768 0 0 1-.768.768Zm8.871 20.983h-6.234a.77.77 0 0 1-.768-.768v-7.357a.77.77 0 0 1 .768-.767h6.234a.768.768 0 0 1 .768.767v7.357a.769.769 0 0 1-.768.768Zm20.132-16.548h-6.234a.77.77 0 0 1-.768-.768V33.91a.769.769 0 0 1 .768-.768h6.234a.769.769 0 0 1 .768.768v7.356a.769.769 0 0 1-.768.768Zm26.101-8.019h-6.233a.768.768 0 0 1-.768-.768v-7.356a.769.769 0 0 1 .768-.767h6.234a.768.768 0 0 1 .768.767v7.356a.77.77 0 0 1-.768.768Zm24.056 0h-6.234a.768.768 0 0 1-.768-.768v-7.356a.767.767 0 0 1 .768-.767h6.234a.77.77 0 0 1 .768.767v7.356a.768.768 0 0 1-.768.768Z"/><path fill="#E6E6E6" d="M122.804 36.063h-6.234a.768.768 0 0 1-.768-.768V27.94a.767.767 0 0 1 .768-.768h6.234a.769.769 0 0 1 .768.768v7.356a.768.768 0 0 1-.768.768ZM117.856 49.2h-6.234a.767.767 0 0 1-.768-.767v-7.356a.768.768 0 0 1 .768-.768h6.234a.769.769 0 0 1 .768.768v7.356a.767.767 0 0 1-.768.768Z"/><path fill="#FF6584" d="M96.702 46.47h-6.234a.77.77 0 0 1-.768-.767v-7.356a.77.77 0 0 1 .768-.768h6.234a.77.77 0 0 1 .768.768v7.356a.77.77 0 0 1-.768.768Z"/><path fill="#E6E6E6" d="M84.589 49.2h-6.234a.77.77 0 0 1-.768-.767v-7.356a.768.768 0 0 1 .768-.768h6.234a.77.77 0 0 1 .768.768v7.356a.77.77 0 0 1-.768.768ZM58.488 60.8h-6.234a.769.769 0 0 1-.768-.767v-7.356a.77.77 0 0 1 .768-.768h6.234a.768.768 0 0 1 .768.768v7.356a.769.769 0 0 1-.768.768Z"/><path fill="#FF6584" d="M26.926 51.077h-6.234a.768.768 0 0 1-.768-.768v-7.356a.77.77 0 0 1 .768-.768h6.234a.769.769 0 0 1 .768.767v7.357a.769.769 0 0 1-.768.768Z"/><path fill="#E6E6E6" d="M44.498 37.6h-6.234a.769.769 0 0 1-.768-.769v-7.356a.769.769 0 0 1 .768-.768h6.234a.769.769 0 0 1 .768.768v7.356a.768.768 0 0 1-.768.768Z"/><path fill="#CCC" d="M39.395 17.197H29.67a.683.683 0 0 1 0-1.365h9.724a.683.683 0 0 1 0 1.365Zm27.467 0h-9.725a.683.683 0 0 1 0-1.365h9.724a.682.682 0 1 1 0 1.365Zm25.761 0h-9.725a.683.683 0 0 1 0-1.365h9.724a.683.683 0 0 1 0 1.365Zm24.054 0h-9.725a.683.683 0 1 1 0-1.365h9.724a.681.681 0 0 1 .482 1.165.681.681 0 0 1-.482.2h.001Z"/></svg>