<svg xmlns="http://www.w3.org/2000/svg" fill="none" viewBox="0 0 133 69"><path fill="#E6E6E6" d="M118.676.757H14.815v66.517h103.861V.757Z"/><path fill="#fff" d="M115.706 9.1H17.785v54.24h97.921V9.1Z"/><path fill="#12B09B" d="M14.77.698h103.862V5.11H14.771V.698Z"/><path fill="#fff" d="M18.05 3.772a.818.818 0 1 0 0-1.636.818.818 0 0 0 0 1.636Zm3.104 0a.818.818 0 1 0 0-1.636.818.818 0 0 0 0 1.636Zm3.104 0a.818.818 0 1 0 0-1.636.818.818 0 0 0 0 1.636Z"/><path fill="#CCC" d="M87.999 14.18h-31.88a.283.283 0 0 1 0-.56h31.88a.283.283 0 0 1 0 .56Zm-22.09 3.086h-20.27a.283.283 0 0 1 0-.56h20.27a.283.283 0 0 1 0 .56Zm22.09.056H67.734a.283.283 0 0 1 0-.56h20.269a.283.283 0 0 1 0 .56h-.004Zm-22.041 3.03h-20.27a.283.283 0 0 1 0-.561h20.27a.283.283 0 0 1 0 .561Zm9.249 0h-5.805a.283.283 0 0 1 0-.561h5.805a.283.283 0 0 1 0 .561Zm-23.91-6.172h-5.805a.283.283 0 0 1 0-.56h5.805a.283.283 0 0 1 0 .56Zm14.437 41.554H45.468a.283.283 0 0 1 0-.56h20.266a.283.283 0 0 1 0 .56Zm.052 3.087h-20.27a.283.283 0 0 1 0-.56h20.27a.283.283 0 0 1 0 .56Zm8.659-3.031H68.64a.283.283 0 0 1 0-.561h5.805a.283.283 0 0 1 0 .561Zm0 3.031H68.64a.283.283 0 0 1 0-.56h5.805a.283.283 0 0 1 0 .56Zm9.741-3.031h-5.81a.283.283 0 0 1 0-.561h5.806a.283.283 0 0 1 0 .561h.004Zm3.838-3.142h-31.88a.283.283 0 0 1 0-.56h31.88a.283.283 0 0 1 0 .56Zm-36.702 0h-5.805a.283.283 0 0 1 0-.56h5.805a.283.283 0 0 1 0 .56Z"/><path fill="#12B09B" d="M3.803 60.403c5.537 7.414 17.029 8.195 17.029 8.195s2.516-11.24-3.02-18.655C12.276 42.53.782 41.748.782 41.748s-2.516 11.24 3.02 18.655Z"/><path fill="#1C9484" d="M9.788 63.187c3.653 4.893 11.237 5.407 11.237 5.407s1.66-7.417-1.993-12.31c-3.654-4.893-11.237-5.408-11.237-5.408s-1.66 7.422 1.993 12.311Z"/><path fill="#12B09B" d="M32.005 63.187c-3.653 4.893-11.237 5.407-11.237 5.407s-1.66-7.417 1.993-12.31c3.653-4.893 11.237-5.408 11.237-5.408s1.66 7.422-1.993 12.311Zm97.192-2.784c-5.537 7.414-17.029 8.195-17.029 8.195s-2.516-11.24 3.02-18.655c5.536-7.414 17.029-8.195 17.029-8.195s2.517 11.24-3.02 18.655Z"/><path fill="#1C9484" d="M123.211 63.187c-3.653 4.893-11.237 5.407-11.237 5.407s-1.661-7.417 1.993-12.31c3.654-4.893 11.237-5.408 11.237-5.408s1.661 7.422-1.993 12.311Z"/><path fill="#12B09B" d="M105.719 64.925c2.481 3.324 7.632 3.673 7.632 3.673s1.128-5.038-1.354-8.36c-2.482-3.324-7.632-3.673-7.632-3.673s-1.131 5.038 1.354 8.36Z"/><path fill="#fff" d="M67.195 49.199c-3.7 0-7.171-.326-9.778-.919-2.932-.666-3.706-1.442-3.706-1.76V41.8c2.303.46 10.447 2.042 13.484 2.042 3.354 0 11.224-1.572 13.485-2.038v4.716c0 .318-.775 1.094-3.707 1.76-2.606.593-6.079.919-9.778.919Z"/><path fill="#12B09B" d="M54.21 42.408v4.053c.163.237 1.103.885 3.849 1.445 2.504.511 5.748.792 9.136.792 3.388 0 6.633-.281 9.137-.792 2.745-.56 3.685-1.208 3.848-1.445v-4.045c-2.832.574-9.84 1.926-12.985 1.926-2.856 0-10.098-1.366-12.984-1.934Zm-1-1.22s10.517 2.154 13.985 2.154c3.846 0 13.985-2.154 13.985-2.154v5.332c0 1.755-6.262 3.178-13.985 3.178s-13.984-1.423-13.984-3.178v-5.332Z"/><path fill="#fff" d="M67.21 44.698c7.733 0 14-1.343 14-3s-6.267-3-14-3c-7.731 0-14 1.343-14 3s6.269 3 14 3Z"/><path stroke="#12B09B" d="M67.21 44.198c7.457 0 13.5-1.119 13.5-2.5 0-1.38-6.043-2.5-13.5-2.5-7.455 0-13.5 1.12-13.5 2.5 0 1.381 6.045 2.5 13.5 2.5Z"/><path fill="#fff" d="M67.195 41.57c-3.7 0-7.171-.325-9.778-.918-2.932-.666-3.706-1.442-3.706-1.76v-4.72c2.303.46 10.447 2.042 13.484 2.042 3.354 0 11.224-1.572 13.485-2.038v4.716c0 .318-.775 1.094-3.707 1.76-2.606.593-6.079.919-9.778.919Z"/><path fill="#12B09B" d="M54.21 34.78v4.053c.163.237 1.103.885 3.849 1.445 2.504.511 5.748.792 9.136.792 3.388 0 6.633-.281 9.137-.792 2.745-.56 3.685-1.208 3.848-1.445v-4.045c-2.832.574-9.84 1.926-12.985 1.926-2.856 0-10.098-1.366-12.984-1.934Zm-1-1.22s10.517 2.154 13.985 2.154c3.846 0 13.985-2.154 13.985-2.154v5.332c0 1.755-6.262 3.178-13.985 3.178s-13.984-1.423-13.984-3.178V33.56Z"/><path fill="#fff" d="M67.21 36.698c7.733 0 14-1.343 14-3s-6.267-3-14-3c-7.731 0-14 1.343-14 3s6.269 3 14 3Z"/><path stroke="#12B09B" d="M67.21 36.198c7.457 0 13.5-1.119 13.5-2.5 0-1.38-6.043-2.5-13.5-2.5-7.455 0-13.5 1.12-13.5 2.5 0 1.381 6.045 2.5 13.5 2.5Z"/><path fill="#fff" d="M67.195 33.942c-3.7 0-7.171-.326-9.778-.918-2.932-.667-3.706-1.443-3.706-1.76V27.11c2.264.326 10.447 1.476 13.484 1.476 3.355 0 11.265-1.128 13.485-1.454v4.132c0 .317-.775 1.093-3.707 1.76-2.606.592-6.079.918-9.778.918Z"/><path fill="#12B09B" d="M54.21 27.686v3.52c.163.236 1.103.884 3.849 1.444 2.504.511 5.748.792 9.136.792 3.388 0 6.633-.281 9.137-.792 2.745-.56 3.685-1.208 3.848-1.445V27.71c-2.787.403-9.844 1.376-12.985 1.376-2.85 0-10.141-.995-12.984-1.4Zm-1-1.154s10.517 1.554 13.985 1.554c3.846 0 13.985-1.534 13.985-1.534v4.712c0 1.755-6.262 3.178-13.985 3.178s-13.984-1.423-13.984-3.178v-4.732Z"/><path fill="#fff" d="M67.21 29.698c7.733 0 14-1.343 14-3s-6.267-3-14-3c-7.731 0-14 1.343-14 3s6.269 3 14 3Z"/><path stroke="#12B09B" d="M67.21 29.198c7.457 0 13.5-1.119 13.5-2.5 0-1.38-6.043-2.5-13.5-2.5-7.455 0-13.5 1.12-13.5 2.5 0 1.381 6.045 2.5 13.5 2.5Z"/></svg>