<svg xmlns="http://www.w3.org/2000/svg" fill="none" viewBox="0 0 417 852"><path fill="#fff" d="M20.048 20h376v812h-376z"/><mask id="Connexion Android__a" fill="#fff"><path d="M382.077 20c0 96.132-74.682 174.063-166.806 174.063-92.124 0-166.805-77.931-166.805-174.063h333.611Z"/></mask><path fill="#F695AC" d="M382.077 20h1v-1h-1v1ZM48.466 20v-1h-1v1h1Zm332.611 0c0 95.621-74.274 173.063-165.806 173.063v2c92.716 0 167.806-78.419 167.806-175.063h-2ZM215.271 193.063c-91.532 0-165.805-77.442-165.805-173.063h-2c0 96.644 75.089 175.063 167.805 175.063v-2ZM48.466 21h166.805v-2H48.466v2Zm166.805 0h166.806v-2H215.271v2Z" mask="url(#Connexion Android__a)"/><g filter="url(#Connexion Android__b)"><path fill="#85E9DB" d="M286.346 109.65c5.674-9.235 17.502-11.97 26.662-6.163l83.474 52.918v79.777l-15.87 28.113c-5.511 9.763-17.77 12.788-27.182 6.708l-101.899-65.827c-9.39-6.066-12.295-18.84-6.449-28.356l41.264-67.17Z"/><path fill="#12B09B" d="m311.173 102.425 85.123 53.832v29.569L283.3 113.885l2.884-4.482c4.708-7.315 13.5-10.546 21.737-7.988l3.252 1.01Z"/><path fill="#C4C4C4" d="m324.872 103.812 6.131 3.934-7.117 12.123-6.132-3.934z"/></g><rect width="396" height="832" x="10.048" y="10" stroke="#000" stroke-width="20" rx="54"/><rect width="324.817" height="50.182" x="44.887" y="380.273" stroke="#12B09B" rx="14.5"/><path fill="#12B09B" d="M67.785 400.408v4.688h4.48v.608h-4.48v4.72h4.96v.608h-5.68V399.8h5.68v.608h-4.96Zm17.411 1.76c.992 0 1.803.32 2.432.96.63.63.944 1.568.944 2.816v5.088h-.704v-5.04c0-1.034-.25-1.824-.752-2.368-.49-.554-1.168-.832-2.032-.832-.896 0-1.616.31-2.16.928-.544.619-.816 1.515-.816 2.688v4.624h-.704v-5.04c0-1.034-.25-1.824-.752-2.368-.49-.554-1.168-.832-2.032-.832-.896 0-1.616.31-2.16.928-.544.619-.816 1.515-.816 2.688v4.624h-.72v-8.688h.72v1.888c.245-.682.64-1.194 1.184-1.536.555-.352 1.19-.528 1.904-.528.79 0 1.467.208 2.032.624.576.406.97 1.008 1.184 1.808.203-.8.597-1.402 1.184-1.808.587-.416 1.275-.624 2.064-.624Zm5.483 4.512c0-.896.176-1.68.528-2.352a3.868 3.868 0 0 1 1.488-1.552c.64-.362 1.366-.544 2.176-.544.918 0 1.696.224 2.336.672.64.448 1.088 1.019 1.344 1.712v-2.272h.72v8.688h-.72v-2.288c-.256.704-.71 1.286-1.36 1.744-.64.448-1.413.672-2.32.672-.81 0-1.536-.181-2.176-.544a3.976 3.976 0 0 1-1.488-1.568c-.352-.682-.528-1.472-.528-2.368Zm7.872 0c0-.757-.16-1.424-.48-2a3.254 3.254 0 0 0-1.28-1.344 3.53 3.53 0 0 0-1.824-.48c-.704 0-1.323.155-1.856.464-.533.299-.95.736-1.248 1.312-.299.576-.448 1.259-.448 2.048 0 .79.15 1.472.448 2.048a3.195 3.195 0 0 0 1.248 1.328c.544.31 1.163.464 1.856.464.672 0 1.28-.154 1.824-.464.555-.32.987-.768 1.296-1.344.31-.586.464-1.264.464-2.032Zm3.71-6.272a.616.616 0 0 1-.432-.16.628.628 0 0 1-.176-.464.61.61 0 0 1 .176-.448.588.588 0 0 1 .432-.176c.171 0 .315.059.432.176a.61.61 0 0 1 .176.448.628.628 0 0 1-.176.464.616.616 0 0 1-.432.16Zm.352 1.936v8.688h-.72v-8.688h.72Zm3.359-3.152v11.84h-.72v-11.84h.72Z"/><rect width="324.817" height="50.182" x="44.887" y="457.393" stroke="#12B09B" rx="14.5"/><path fill="#12B09B" d="M77.545 477.507v10.992h-.72v-9.488l-4.224 9.488h-.576l-4.24-9.488v9.488h-.72v-10.992h.768l4.48 10.048 4.48-10.048h.752Zm6.469 11.12c-.811 0-1.542-.181-2.192-.544a3.905 3.905 0 0 1-1.536-1.552c-.363-.682-.544-1.477-.544-2.384 0-.896.186-1.68.56-2.352.373-.682.885-1.2 1.536-1.552a4.522 4.522 0 0 1 2.208-.544c.81 0 1.541.182 2.192.544.65.352 1.157.864 1.52 1.536.373.672.56 1.462.56 2.368 0 .907-.187 1.702-.56 2.384a3.877 3.877 0 0 1-1.552 1.552c-.651.363-1.382.544-2.192.544Zm0-.64c.629 0 1.216-.138 1.76-.416.554-.288.997-.72 1.328-1.296.33-.576.496-1.285.496-2.128 0-.832-.166-1.536-.496-2.112-.331-.576-.768-1.002-1.312-1.28a3.705 3.705 0 0 0-1.76-.432c-.63 0-1.216.144-1.76.432-.534.278-.966.704-1.296 1.28-.331.576-.496 1.28-.496 2.112 0 .843.16 1.552.48 2.128.33.576.762 1.008 1.296 1.296a3.81 3.81 0 0 0 1.76.416Zm7.56-7.552v5.744c0 .64.118 1.083.352 1.328.235.235.65.352 1.248.352h.976v.64h-1.088c-.757 0-1.317-.176-1.68-.528-.352-.362-.528-.96-.528-1.792v-5.744h-1.312v-.624h1.312v-2.208h.72v2.208h2.576v.624h-2.576Zm8.543 3.712c0-.896.176-1.68.528-2.352a3.86 3.86 0 0 1 1.488-1.552c.64-.362 1.365-.544 2.176-.544.885 0 1.653.224 2.304.672a3.544 3.544 0 0 1 1.376 1.712v-5.424h.72v11.84h-.72v-2.304a3.63 3.63 0 0 1-1.344 1.76c-.64.448-1.419.672-2.336.672-.811 0-1.536-.181-2.176-.544a3.966 3.966 0 0 1-1.488-1.568c-.352-.682-.528-1.472-.528-2.368Zm7.872 0c0-.757-.16-1.424-.48-2a3.258 3.258 0 0 0-1.28-1.344 3.53 3.53 0 0 0-1.824-.48c-.704 0-1.323.155-1.856.464-.534.299-.95.736-1.248 1.312-.299.576-.448 1.259-.448 2.048 0 .79.149 1.472.448 2.048a3.186 3.186 0 0 0 1.248 1.328c.544.31 1.162.464 1.856.464.672 0 1.28-.154 1.824-.464.554-.32.986-.768 1.296-1.344.309-.586.464-1.264.464-2.032Zm11.165-.576c0 .384-.01.672-.032.864h-7.504c.022.779.192 1.435.512 1.968.32.534.742.934 1.264 1.2a3.71 3.71 0 0 0 1.712.4c.854 0 1.568-.208 2.144-.624.576-.426.939-1.002 1.088-1.728h.752a3.504 3.504 0 0 1-1.312 2.16c-.704.544-1.594.816-2.672.816-.81 0-1.536-.181-2.176-.544a3.832 3.832 0 0 1-1.504-1.552c-.362-.682-.544-1.477-.544-2.384 0-.906.176-1.696.528-2.368a3.73 3.73 0 0 1 1.504-1.536c.64-.362 1.371-.544 2.192-.544.832 0 1.552.182 2.16.544a3.545 3.545 0 0 1 1.408 1.424c.32.587.48 1.222.48 1.904Zm-.72.272c.032-.768-.106-1.418-.416-1.952a2.803 2.803 0 0 0-1.232-1.184 3.684 3.684 0 0 0-1.696-.4c-.608 0-1.173.134-1.696.4-.512.256-.933.651-1.264 1.184-.32.534-.49 1.184-.512 1.952h6.816Zm8.132-1.744c.245-.704.688-1.28 1.328-1.728.651-.448 1.435-.672 2.352-.672.811 0 1.531.182 2.16.544.64.363 1.136.88 1.488 1.552.363.672.544 1.456.544 2.352 0 .896-.181 1.686-.544 2.368a3.833 3.833 0 0 1-1.488 1.568c-.629.363-1.349.544-2.16.544-.907 0-1.685-.224-2.336-.672-.64-.458-1.088-1.034-1.344-1.728v6.368h-.72v-12.784h.72v2.288Zm7.136 2.048c0-.789-.149-1.472-.448-2.048a3.07 3.07 0 0 0-1.264-1.312c-.533-.309-1.152-.464-1.856-.464-.672 0-1.28.16-1.824.48-.544.31-.971.758-1.28 1.344-.309.576-.464 1.243-.464 2 0 .768.155 1.446.464 2.032a3.376 3.376 0 0 0 1.28 1.344c.544.31 1.152.464 1.824.464.704 0 1.323-.154 1.856-.464a3.166 3.166 0 0 0 1.264-1.328c.299-.576.448-1.258.448-2.048Zm2.462 0c0-.896.176-1.68.528-2.352a3.86 3.86 0 0 1 1.488-1.552c.64-.362 1.365-.544 2.176-.544.917 0 1.696.224 2.336.672.64.448 1.088 1.019 1.344 1.712v-2.272h.72v8.688h-.72v-2.288c-.256.704-.71 1.286-1.36 1.744-.64.448-1.414.672-2.32.672-.811 0-1.536-.181-2.176-.544a3.966 3.966 0 0 1-1.488-1.568c-.352-.682-.528-1.472-.528-2.368Zm7.872 0c0-.757-.16-1.424-.48-2a3.258 3.258 0 0 0-1.28-1.344 3.53 3.53 0 0 0-1.824-.48c-.704 0-1.323.155-1.856.464-.534.299-.95.736-1.248 1.312-.299.576-.448 1.259-.448 2.048 0 .79.149 1.472.448 2.048a3.186 3.186 0 0 0 1.248 1.328c.544.31 1.162.464 1.856.464.672 0 1.28-.154 1.824-.464.554-.32.986-.768 1.296-1.344.309-.586.464-1.264.464-2.032Zm6.237 4.48c-.971 0-1.765-.213-2.384-.64-.608-.426-.949-1.034-1.024-1.824h.736c.053.566.309 1.014.768 1.344.469.331 1.104.496 1.904.496.661 0 1.184-.165 1.568-.496.395-.341.592-.757.592-1.248 0-.341-.107-.618-.32-.832a1.958 1.958 0 0 0-.768-.512 13.003 13.003 0 0 0-1.264-.384c-.64-.17-1.157-.336-1.552-.496a2.679 2.679 0 0 1-1.008-.752c-.277-.33-.416-.773-.416-1.328 0-.405.123-.778.368-1.12a2.493 2.493 0 0 1 1.024-.832 3.507 3.507 0 0 1 1.488-.304c.907 0 1.637.23 2.192.688.565.448.869 1.072.912 1.872h-.72c-.032-.576-.256-1.045-.672-1.408-.416-.362-.992-.544-1.728-.544-.619 0-1.131.16-1.536.48-.405.32-.608.71-.608 1.168 0 .406.112.736.336.992.235.246.517.438.848.576.341.128.789.267 1.344.416.608.16 1.093.32 1.456.48.373.15.688.374.944.672.256.288.384.678.384 1.168 0 .448-.123.854-.368 1.216a2.435 2.435 0 0 1-1.024.848 3.454 3.454 0 0 1-1.472.304Zm7.953 0c-.97 0-1.765-.213-2.384-.64-.608-.426-.949-1.034-1.024-1.824h.736c.054.566.31 1.014.768 1.344.47.331 1.104.496 1.904.496.662 0 1.184-.165 1.568-.496.395-.341.592-.757.592-1.248 0-.341-.106-.618-.32-.832a1.944 1.944 0 0 0-.768-.512c-.309-.117-.73-.245-1.264-.384-.64-.17-1.157-.336-1.552-.496a2.694 2.694 0 0 1-1.008-.752c-.277-.33-.416-.773-.416-1.328 0-.405.123-.778.368-1.12a2.5 2.5 0 0 1 1.024-.832 3.514 3.514 0 0 1 1.488-.304c.907 0 1.638.23 2.192.688.566.448.87 1.072.912 1.872h-.72c-.032-.576-.256-1.045-.672-1.408-.416-.362-.992-.544-1.728-.544-.618 0-1.13.16-1.536.48-.405.32-.608.71-.608 1.168 0 .406.112.736.336.992.235.246.518.438.848.576.342.128.79.267 1.344.416.608.16 1.094.32 1.456.48.374.15.688.374.944.672.256.288.384.678.384 1.168 0 .448-.122.854-.368 1.216a2.43 2.43 0 0 1-1.024.848 3.454 3.454 0 0 1-1.472.304Zm12.881-5.056c0 .384-.01.672-.032.864h-7.504c.022.779.192 1.435.512 1.968.32.534.742.934 1.264 1.2a3.71 3.71 0 0 0 1.712.4c.854 0 1.568-.208 2.144-.624.576-.426.939-1.002 1.088-1.728h.752a3.504 3.504 0 0 1-1.312 2.16c-.704.544-1.594.816-2.672.816-.81 0-1.536-.181-2.176-.544a3.832 3.832 0 0 1-1.504-1.552c-.362-.682-.544-1.477-.544-2.384 0-.906.176-1.696.528-2.368a3.73 3.73 0 0 1 1.504-1.536c.64-.362 1.371-.544 2.192-.544.832 0 1.552.182 2.16.544a3.545 3.545 0 0 1 1.408 1.424c.32.587.48 1.222.48 1.904Zm-.72.272c.032-.768-.106-1.418-.416-1.952a2.803 2.803 0 0 0-1.232-1.184 3.684 3.684 0 0 0-1.696-.4c-.608 0-1.173.134-1.696.4-.512.256-.933.651-1.264 1.184-.32.534-.49 1.184-.512 1.952h6.816ZM111.53 332.708c0-2.176.491-4.128 1.472-5.856.981-1.749 2.315-3.115 4-4.096 1.707-.981 3.595-1.472 5.664-1.472 2.432 0 4.555.587 6.368 1.76 1.813 1.173 3.136 2.837 3.968 4.992h-3.488c-.619-1.344-1.515-2.379-2.688-3.104-1.152-.725-2.539-1.088-4.16-1.088-1.557 0-2.955.363-4.192 1.088-1.237.725-2.208 1.76-2.912 3.104-.704 1.323-1.056 2.88-1.056 4.672 0 1.771.352 3.328 1.056 4.672.704 1.323 1.675 2.347 2.912 3.072 1.237.725 2.635 1.088 4.192 1.088 1.621 0 3.008-.352 4.16-1.056 1.173-.725 2.069-1.76 2.688-3.104h3.488c-.832 2.133-2.155 3.787-3.968 4.96-1.813 1.152-3.936 1.728-6.368 1.728-2.069 0-3.957-.48-5.664-1.44-1.685-.981-3.019-2.336-4-4.064-.981-1.728-1.472-3.68-1.472-5.856Zm38.991 6.208h-9.728l-1.792 4.96h-3.072l8.064-22.176h3.36l8.032 22.176h-3.072l-1.792-4.96Zm-.832-2.368-4.032-11.264-4.032 11.264h8.064Zm12.122 4.96h7.808v2.368h-10.72v-22.304h2.912v19.936Zm13.813-17.568v7.456h8.128v2.4h-8.128v7.68h9.088v2.4h-12V321.54h12v2.4h-9.088Zm31.03 19.936h-2.912l-11.712-17.76v17.76h-2.912V321.54h2.912l11.712 17.728V321.54h2.912v22.336Zm11.908-22.304c2.432 0 4.533.459 6.304 1.376 1.792.896 3.157 2.187 4.096 3.872.96 1.685 1.44 3.669 1.44 5.952s-.48 4.267-1.44 5.952c-.939 1.664-2.304 2.944-4.096 3.84-1.771.875-3.872 1.312-6.304 1.312h-6.944v-22.304h6.944Zm0 19.904c2.88 0 5.077-.757 6.592-2.272 1.515-1.536 2.272-3.68 2.272-6.432 0-2.773-.768-4.939-2.304-6.496-1.515-1.557-3.701-2.336-6.56-2.336h-4.032v17.536h4.032Zm27.425 2.4-5.312-9.12h-3.52v9.12h-2.912v-22.304h7.2c1.685 0 3.104.288 4.256.864 1.173.576 2.048 1.355 2.624 2.336.576.981.864 2.101.864 3.36 0 1.536-.448 2.891-1.344 4.064-.875 1.173-2.197 1.952-3.968 2.336l5.6 9.344h-3.488Zm-8.832-11.456h4.288c1.579 0 2.763-.384 3.552-1.152.789-.789 1.184-1.835 1.184-3.136 0-1.323-.395-2.347-1.184-3.072-.768-.725-1.952-1.088-3.552-1.088h-4.288v8.448Zm19.469-10.848v22.304h-2.912v-22.304h2.912Zm7.875 2.368v7.456h8.128v2.4h-8.128v7.68h9.088v2.4h-12V321.54h12v2.4h-9.088Zm25.238 19.936-5.312-9.12h-3.52v9.12h-2.912v-22.304h7.2c1.685 0 3.104.288 4.256.864 1.173.576 2.048 1.355 2.624 2.336.576.981.864 2.101.864 3.36 0 1.536-.448 2.891-1.344 4.064-.875 1.173-2.197 1.952-3.968 2.336l5.6 9.344h-3.488Zm-8.832-11.456h4.288c1.579 0 2.763-.384 3.552-1.152.789-.789 1.184-1.835 1.184-3.136 0-1.323-.395-2.347-1.184-3.072-.768-.725-1.952-1.088-3.552-1.088h-4.288v8.448Zm115.143 381.619V783.5h-180c0-97.366 80.589-176.296 180-176.296v106.835Z"/><path stroke="#12B09B" d="M20.586 534.984c134.55.516 243.323 112.03 243.258 249.435l-.654-.001-1.146-.002-1.137-.002-1.129-.002-1.12-.002-1.111-.002-1.103-.002-1.094-.002-1.086-.002-1.078-.002-1.068-.002-1.061-.002-1.052-.002-1.044-.002-1.035-.002-1.027-.002-1.019-.001-1.011-.002-1.003-.002-.994-.002-.986-.001-.978-.002-.97-.002-.962-.002-.954-.001-.946-.002-.939-.002-.93-.001-.922-.002-.915-.002-.906-.001-.899-.002-.891-.002-.884-.001-.876-.002-.868-.001-.86-.002-.853-.001-.845-.002-.838-.001-.83-.002-.823-.001-.816-.002-.808-.001-.8-.002-.793-.001-.786-.001-.779-.002-.772-.001-.764-.002-.757-.001-.75-.001-.742-.002-.736-.001-.729-.001-.721-.002-.715-.001-.708-.001-.7-.001-.694-.002-.687-.001-.68-.001-.673-.001-.667-.001-.659-.002-.654-.001-.646-.001-.64-.001-.633-.001-.626-.001-.62-.001-.613-.002-.607-.001-.601-.001-.594-.001-.588-.001-.581-.001-.575-.001-.568-.001-.563-.001-.556-.001-.55-.001-.543-.001-.538-.001-.531-.001-.526-.001-.519-.001-.513-.001h-.508l-.501-.001-.495-.001-.49-.001-.483-.001-.478-.001-.472-.001-.467-.001h-.46l-.455-.001-.449-.001-.443-.001-.438-.001h-.432l-.427-.001-.421-.001-.416-.001h-.41l-.405-.001-.4-.001h-.394l-.388-.001-.384-.001h-.378l-.373-.001-.368-.001h-.362l-.358-.001-.352-.001h-.347l-.342-.001-.337-.001h-.332l-.328-.001h-.322l-.317-.001h-.313l-.307-.001-.303-.001h-.299l-.293-.001h-.289l-.284-.001h-.279l-.275-.001h-.27l-.266-.001h-.261l-.256-.001h-.5l-.244-.001h-.239l-.234-.001h-.231l-.226-.001h-.439l-.214-.001h-.415l-.201-.001h-.39l-.189-.001h-.38l-.01-.001h-.518l-.043-.001h-.515l-.046-.001h-.516l-.06-.001h-.491l-.055-.001h-.489l-.06-.001h-.534l-.053-.001h-.517l-.013-.001h-.554l-.004-.001h-.44l-.186-.001h-.386l-.198-.001h-.41l-.211-.001h-.215l-.219-.001h-.451l-.232-.001h-.237l-.24-.001h-.245l-.25-.001h-.512l-.263-.001h-.267l-.272-.001h-.276l-.282-.001h-.285l-.291-.001h-.295l-.3-.001-.305-.001h-.309l-.314-.001h-.32l-.324-.001h-.329l-.334-.001-.339-.001h-.344l-.349-.001h-.354l-.36-.001-.364-.001h-.37l-.375-.001-.38-.001h-.385l-.391-.001-.396-.001-.401-.001h-.407l-.413-.001-.417-.001-.424-.001h-.428l-.435-.001-.44-.001-.445-.001h-.451l-.457-.001-.463-.001-.468-.001-.475-.001-.48-.001-.485-.001h-.492l-.498-.001-.503-.001-.51-.001-.515-.001-.522-.001-.528-.001-.533-.001-.54-.001-.546-.001-.553-.001-.558-.001-.565-.001-.571-.001-.577-.001-.584-.001-.59-.001-.596-.001-.603-.001-.609-.001-.616-.001-.623-.001-.629-.002-.635-.001-.642-.001-.649-.001-.656-.001-.662-.001-.669-.002-.676-.001-.683-.001-.689-.001-.696-.001-.704-.002-.71-.001-.717-.001-.724-.002-.732-.001-.738-.001-.745-.002-.753-.001-.76-.001-.767-.002-.774-.001-.781-.001-.789-.002-.79-.001-.787-.002-.782-.001-.779-.001-.774-.002-.771-.001-.766-.002-.763-.001-.759-.001-.755-.002-.751-.001-.747-.001-.744-.002-.739-.001-.736-.001-.731-.002-.728-.001-.725-.001-.72-.001-.716-.002-.713-.001-.709-.001-.705-.002-.702-.001-.697-.001-.694-.001-.69-.002-.687-.001-.682-.001-.68-.001-.675-.001-.672-.002-.667-.001-.665-.001-.66-.001-.657-.001-.654-.002-.65-.001-.645-.001-.643-.001-.639-.001-.635-.001-.632-.001-.628-.002-.625-.001-.62-.001-.618-.001-.614-.001-.61-.001-.607-.001-.604-.001-.6-.001-.596-.001-.593-.001-.59-.001-.585-.002-.583-.001-.579-.001-.576-.001-.572-.001-.569-.001-.565-.001-.562-.001-.559-.001-.555-.001-.552-.001-.549-.001-.545-.001-.542-.001-.538-.001-.536-.001h-.532l-.528-.001-.526-.001-.522-.001-.518-.001-.516-.001-.512-.001-.51-.001-.505-.001-.503-.001-.5-.001-.495-.001h-.493l-.49-.001-.487-.001-.483-.001-.48-.001-.478-.001-.474-.001h-.47l-.468-.001-.465-.001-.462-.001-.458-.001-.456-.001h-.452l-.45-.001-.446-.001-.443-.001-.44-.001h-.437l-.434-.001-.431-.001-.429-.001h-.425l-.422-.001-.42-.001-.416-.001h-.413l-.41-.001-.408-.001-.404-.001h-.402l-.398-.001-.396-.001h-.393l-.39-.001-.388-.001-.384-.001h-.382l-.378-.001-.376-.001h-.373l-.37-.001-.368-.001H44.2l-.362-.001h-.359l-.356-.001-.354-.001h-.35l-.35-.001-.345-.001h-.342l-.34-.001h-.338l-.334-.001-.333-.001h-.329l-.327-.001h-.324l-.321-.001-.319-.001h-.316l-.314-.001h-.31l-.31-.001h-.305l-.303-.001h-.301l-.298-.001h-.296l-.293-.001-.29-.001h-.289l-.285-.001h-.284l-.28-.001h-.278l-.276-.001h-.273l-.271-.001h-.535l-.263-.001h-.261l-.259-.001h-.256l-.254-.001h-.252l-.25-.001h-.246l-.245-.001h-.482l-.238-.001h-.235l-.233-.001h-.23l-.23-.001h-.449l-.222-.001h-.22l-.217-.001h-.428l-.21-.001h-.415l-.204-.001h-.403l-.197-.001h-.196l-.193-.001h-.381l-.187-.001h-.368l-.18-.001h-.532l-.172-.001h-.34l-.167-.001h-.327l-.161-.001h-.471l-.153-.001h-.447l-.145-.001h-.286l-.14-.001h-.541l-.034-.001v-.234l.001-.054v-.36l.001-.067v-.361l.001-.078v-.33l.001-.088v-.368l.001-.096v-.302l.001-.104v-.324l.001-.112v-.229l.001-.118v-.363l.001-.125v-.256l.001-.131v-.266l.001-.137v-.278l.001-.142v-.29l.001-.147v-.301l.001-.154v-.312l.001-.159v-.161l.001-.162v-.332l.001-.168v-.17l.001-.173v-.35l.001-.178v-.179l.001-.182v-.184l.001-.185v-.187l.001-.19v-.384l.001-.195v-.197l.001-.198v-.201l.001-.202v-.205l.001-.206v-.208l.001-.21v-.212l.001-.214v-.216l.001-.218v-.219l.001-.222v-.223l.002-.225v-.456l.001-.231v-.233l.001-.235v-.236l.001-.239.001-.24v-.243l.001-.244v-.246l.001-.248v-.25l.002-.252v-.509l.001-.258.001-.259v-.262l.001-.263v-.265l.002-.267v-.54l.001-.272.001-.275v-.277l.001-.278.001-.28v-.283l.001-.284.001-.286v-.288l.002-.29v-.585l.002-.296v-.297l.001-.3v-.301l.002-.303v-.305l.001-.307v-.309l.001-.311.001-.313v-.314l.002-.317v-.318l.001-.321.001-.322v-.324l.002-.326v-.328l.001-.33v-.332l.002-.333v-.336l.001-.338.001-.339.001-.341v-.344l.002-.345v-.347l.001-.349.001-.351.001-.352v-.355l.002-.357v-.358l.001-.361.001-.362.001-.364.001-.367v-.368l.002-.37v-.372l.002-.373v-.376l.001-.378.001-.379.001-.382.001-.383.001-.386v-.387l.002-.389v-.391l.002-.393v-.395l.002-.397v-.398l.002-.401v-.402l.002-.405v-.406l.001-.409.001-.41.001-.412.001-.414.001-.416.001-.418.001-.42.001-.421.001-.424.001-.426.002-.427v-.429l.002-.432v-.433l.002-.435v-.437l.002-.439v-.441l.002-.443v-.445l.002-.446.001-.449.001-.45.001-.453.001-.454.001-.456.001-.458.002-.461v-.462l.002-.464v-.465l.002-.468.001-.47.001-.472.001-.473.002-.476v-.477l.002-.479.001-.482.001-.483.001-.485.001-.487.002-.489v-.491l.002-.493.001-.494.001-.497.002-.499v-.5l.002-.503.001-.504.001-.506.002-.508v-.511l.002-.512.001-.514.002-.516v-.517l.002-.52.001-.522.002-.524v-.525l.002-.528.001-.529.002-.531v-.534l.002-.535.001-.537.002-.539.001-.541.001-.543.002-.545v-.547l.002-.548.002-.551v-.553l.002-.554.002-.557v-.558l.002-.56.002-.563v-.564l.002-.566.002-.568v-.57l.002-.572.002-.574.001-.576.001-.577.002-.58.001-.581.002-.584.001-.585.001-.588.002-.589.001-.591.002-.594.001-.595.002-.597v-.599l.002-.601.002-.603.001-.604.002-.607.001-.609.002-.611.001-.612.002-.615.001-.616.002-.618.001-.621.002-.622.001-.624.002-.626.001-.628.002-.63.001-.632.002-.634.001-.636.002-.638.001-.64.002-.641.001-.644.002-.645.001-.648.002-.649.001-.652.002-.653.002-.655.001-.657.002-.66.001-.661.002-.663.001-.665.002-.667.002-.668.001-.671.002-.673.002-.675.001-.676.002-.679.001-.68.002-.683.002-.684.001-.686.002-.689.002-.69.001-.692.002-.694.002-.696.001-.698.002-.7.002-.702.001-.704.002-.706.002-.708.001-.71.002-.711.002-.714.002-.715.001-.718.002-.719.002-.722.001-.723.002-.725.002-.728.002-.729.001-.731.002-.733.002-.735.002-.737.001-.739.002-.741.002-.743.002-.745.002-.746.001-.749.002-.751.002-.752.002-.755.002-.756.001-.759.002-.76.002-.763.002-.764.002-.766.001-.769.002-.77.002-.772.002-.774.002-.776.002-.778.002-.78.001-.782.002-.784.002-.786.002-.788.002-.789.002-.792.002-.794.002-.795.002-.798.002-.799.001-.802.002-.803.002-.806.002-.807.002-.809.002-.812.002-.813.002-.815.002-.817.002-.819.002-.821.002-.823.002-.825.002-.827.002-.829.002-.831.002-.833.002-.835.002-.837.002-.838.002-.841.002-.843.002-.844.002-.847.002-.848.002-.851.002-.852.002-.855.002-.856.002-.858.002-.861.002-.862.002-.864.002-.866.002-.869.003-.87.002-.872.002-.874.002-.876.002-.878.002-.88.002-.882.002-.884.002-.885.002-.888.003-.89.002-.892.002-.893.002-.896.002-.898.002-.899.003-.902.002-.903.002-.906.002-.907.002-.91.002-.911.003-.914.002-.915.002-.917.002-.92.002-.921.003-.923.002-.925.002-.928.002-.929.002-.931.003-.933.002-.935.002-.937.002-.939.003-.941.002-.943.002-.945.002-.947.003-.949.002-.951.002-.952.002-.955.003-.957.002-.959.002-.96.003-.963.002-.965.002-.966.003-.969.002-.97.002-.973.003-.975.002-.976.002-.979.003-.98.002-.982.001-.484Z"/><ellipse cx="249.88" cy="555.345" fill="#F695AC" rx="4.306" ry="4.294"/><ellipse cx="284.325" cy="555.345" fill="#F695AC" rx="4.306" ry="4.294"/><ellipse cx="249.88" cy="589.698" fill="#F695AC" rx="4.306" ry="4.294"/><ellipse cx="284.325" cy="589.698" fill="#F695AC" rx="4.306" ry="4.294"/><ellipse cx="318.77" cy="555.345" fill="#F695AC" rx="4.306" ry="4.294"/><ellipse cx="353.216" cy="555.345" fill="#F695AC" rx="4.306" ry="4.294"/><ellipse cx="318.77" cy="589.698" fill="#F695AC" rx="4.306" ry="4.294"/><ellipse cx="353.216" cy="589.698" fill="#F695AC" rx="4.306" ry="4.294"/><ellipse cx="380.585" cy="555.345" fill="#F695AC" rx="4.306" ry="4.294"/><ellipse cx="380.585" cy="589.698" fill="#F695AC" rx="4.306" ry="4.294"/><ellipse cx="249.88" cy="624.05" fill="#F695AC" rx="4.306" ry="4.294"/><ellipse cx="284.325" cy="624.05" fill="#F695AC" rx="4.306" ry="4.294"/><ellipse cx="249.88" cy="658.402" fill="#F695AC" rx="4.306" ry="4.294"/><path fill="#fff" d="M350.324 720.051a2 2 0 0 0 0-2.828l-12.728-12.728a2 2 0 1 0-2.828 2.828l11.313 11.314-11.313 11.314a2 2 0 1 0 2.828 2.828l12.728-12.728Zm-41.414.586h40v-4h-40v4ZM20.048 783h375v8c0 22.091-17.909 40-40 40h-295c-22.092 0-40-17.909-40-40v-8Z"/><rect width="14" height="14" x="296.048" y="800" stroke="#000" stroke-opacity=".6" stroke-width="2" rx="1"/><circle cx="208.048" cy="807" r="8" stroke="#000" stroke-opacity=".6" stroke-width="2"/><path stroke="#000" stroke-opacity=".6" stroke-width="2" d="m107.753 806.569 12.541-7.377a.5.5 0 0 1 .754.431v14.754a.5.5 0 0 1-.754.431l-12.541-7.377a.5.5 0 0 1 0-.862Z"/><defs><filter id="Connexion Android__b" width="174.419" height="193.701" x="232.063" y="96.441" color-interpolation-filters="sRGB" filterUnits="userSpaceOnUse"><feFlood flood-opacity="0" result="BackgroundImageFix"/><feColorMatrix in="SourceAlpha" result="hardAlpha" values="0 0 0 0 0 0 0 0 0 0 0 0 0 0 0 0 0 0 127 0"/><feOffset dy="6"/><feGaussianBlur stdDeviation="5"/><feComposite in2="hardAlpha" operator="out"/><feColorMatrix values="0 0 0 0 0.992157 0 0 0 0 0.929412 0 0 0 0 0.933333 0 0 0 1 0"/><feBlend in2="BackgroundImageFix" result="effect1_dropShadow_4_123"/><feBlend in="SourceGraphic" in2="effect1_dropShadow_4_123" result="shape"/></filter></defs></svg>