<svg xmlns="http://www.w3.org/2000/svg" fill="none" viewBox="0 0 74 81">
    <g fill="#8CC84B" clip-path="url(#nodejs-icon 1__a)">
        <path
            d="M33.807 1.873c1.966-1.13 4.527-1.136 6.492 0 9.883 5.61 19.77 11.21 29.652 16.824 1.858 1.051 3.101 3.129 3.082 5.28v33.75c.014 2.24-1.352 4.368-3.313 5.395-9.85 5.58-19.697 11.165-29.546 16.743-2.007 1.153-4.62 1.064-6.563-.183-2.954-1.72-5.912-3.43-8.866-5.149-.603-.361-1.284-.649-1.71-1.237.377-.51 1.05-.573 1.598-.796 1.233-.394 2.365-1.026 3.498-1.64.286-.196.636-.12.91.056 2.526 1.454 5.029 2.95 7.562 4.391.541.314 1.088-.102 1.55-.361C47.82 69.458 57.5 63.991 67.164 58.501a.965.965 0 0 0 .527-.949c.007-11.133.002-22.269.004-33.402a1.045 1.045 0 0 0-.62-1.04C57.26 17.555 47.447 11.993 37.632 6.44a1.02 1.02 0 0 0-1.156-.002C26.66 11.994 16.85 17.56 7.036 23.114c-.402.183-.67.587-.623 1.036.002 11.133 0 22.269 0 33.404a.948.948 0 0 0 .534.937c2.619 1.492 5.241 2.973 7.862 4.46 1.477.798 3.29 1.273 4.917.661 1.435-.517 2.441-1.989 2.414-3.52.014-11.068-.007-22.138.01-33.205-.036-.491.428-.897.904-.85a153.4 153.4 0 0 1 3.777.003c.525-.012.887.517.822 1.012-.005 11.138.014 22.277-.009 33.415.004 2.969-1.21 6.199-3.944 7.651-3.367 1.753-7.53 1.381-10.857-.3-2.88-1.443-5.629-3.147-8.458-4.694-1.966-1.022-3.325-3.158-3.311-5.397v-33.75c-.02-2.196 1.272-4.311 3.189-5.347 9.849-5.584 19.696-11.171 29.544-16.757Z" />
        <path
            d="M42.4 25.252c4.295-.278 8.894-.165 12.76 1.96 2.992 1.63 4.651 5.049 4.704 8.388-.083.45-.552.7-.98.669-1.247-.002-2.493.017-3.74-.009-.529.02-.836-.47-.902-.939-.358-1.598-1.226-3.18-2.723-3.951-2.299-1.156-4.964-1.098-7.47-1.074-1.83.098-3.798.257-5.348 1.338-1.19.818-1.552 2.471-1.127 3.802.4.956 1.499 1.264 2.397 1.549 5.177 1.36 10.663 1.224 15.74 3.014 2.103.73 4.16 2.148 4.88 4.36.94 2.963.528 6.505-1.57 8.884-1.703 1.957-4.182 3.023-6.655 3.602-3.29.736-6.703.755-10.043.428-3.141-.36-6.41-1.189-8.835-3.338-2.074-1.809-3.086-4.627-2.986-7.346.024-.46.48-.78.918-.742 1.255-.01 2.51-.014 3.765.001.501-.036.873.4.898.874.232 1.523.802 3.12 2.123 4.023 2.551 1.653 5.752 1.54 8.673 1.587 2.42-.108 5.136-.14 7.11-1.748 1.043-.916 1.351-2.449 1.07-3.768-.305-1.113-1.465-1.632-2.46-1.971-5.111-1.624-10.658-1.035-15.72-2.871-2.054-.73-4.04-2.109-4.83-4.229-1.102-3-.597-6.712 1.722-9.011 2.261-2.287 5.525-3.167 8.628-3.483Z" />
    </g>
    <defs>
        <clipPath id="nodejs-icon 1__a">
            <path fill="#fff" d="M0 0h72.316v80H0z" transform="translate(.903 .857)" />
        </clipPath>
    </defs>
</svg>