<svg xmlns="http://www.w3.org/2000/svg" fill="none" viewBox="0 0 142 101"><path fill="#F695AC" d="M141.712 76.076c-.699-5.554-4.178-11.027-9.532-12.835a25.532 25.532 0 0 1 0 17.706c-.822 2.2-1.97 4.566-1.195 6.784a5.792 5.792 0 0 0 2.976 3.1 17.453 17.453 0 0 0 4.221 1.284l.284.233c2.289-5.12 3.944-10.719 3.246-16.272Z"/><path fill="#fff" d="M132.127 63.347a21.933 21.933 0 0 1 5.539 12.405c.121.99.084 1.993-.11 2.972a5.423 5.423 0 0 1-1.368 2.525 11.267 11.267 0 0 0-1.768 2.093 3.295 3.295 0 0 0-.165 2.72 8.654 8.654 0 0 0 1.94 2.864 8.512 8.512 0 0 1 2.155 3.181c.044.153.281.076.236-.076-.641-2.192-2.791-3.437-3.817-5.41a3.353 3.353 0 0 1-.231-2.962 8.76 8.76 0 0 1 1.754-2.159 5.789 5.789 0 0 0 1.431-2.42 8.68 8.68 0 0 0 .225-2.956 21.222 21.222 0 0 0-1.579-6.5 22.402 22.402 0 0 0-4.078-6.464c-.106-.118-.27.068-.164.185v.002Z"/><path fill="#fff" d="M137.599 74.26a3.345 3.345 0 0 0 1.915-1.27 3.282 3.282 0 0 0 .629-2.194c-.013-.158-.262-.146-.249.012a3.036 3.036 0 0 1-.585 2.043 3.098 3.098 0 0 1-1.788 1.175c-.157.035-.076.27.078.234Zm-1.053 6.69a6.385 6.385 0 0 1-2.876-3.671c-.046-.152-.282-.075-.237.077a6.643 6.643 0 0 0 3.002 3.814c.138.08.249-.14.111-.22Zm-1.385-13.46a1.91 1.91 0 0 1-1.793-.09c-.137-.083-.249.138-.112.22a2.136 2.136 0 0 0 1.983.1.125.125 0 0 0 .07-.062.126.126 0 0 0 .009-.094.127.127 0 0 0-.063-.068.129.129 0 0 0-.094-.006Z"/><path fill="#F695AC" d="M115.86 73.162c.084.054.169.108.253.164a24.936 24.936 0 0 1 3.417 2.672 26.016 26.016 0 0 1 5.705 7.725 25.12 25.12 0 0 1 1.396 3.577 16.348 16.348 0 0 0 1.959 4.953c.105.146.219.285.341.416h9.223l.063-.029.367.017c-.015-.065-.031-.13-.046-.2l-.027-.112c-.008-.037-.013-.05-.018-.073-.004-.023 0-.017-.006-.023 0-.023-.01-.044-.015-.064a65.699 65.699 0 0 0-.286-1.118c-.72-2.847-1.78-5.6-3.156-8.2-.043-.077-.084-.156-.131-.233a24.033 24.033 0 0 0-2.186-3.28 21.404 21.404 0 0 0-1.433-1.623 17.877 17.877 0 0 0-4.479-3.319 14.343 14.343 0 0 0-10.673-1.335c-.089.03-.177.056-.268.085Z"/><path fill="#fff" d="M115.88 73.279a22.345 22.345 0 0 1 11.971 6.606 9.486 9.486 0 0 1 1.718 2.438c.401.888.554 1.865.444 2.832a11.145 11.145 0 0 0-.137 2.724 3.323 3.323 0 0 0 1.524 2.27 8.812 8.812 0 0 0 3.291 1.13 8.66 8.66 0 0 1 3.657 1.259c.128.1.269-.108.142-.2-1.846-1.367-4.32-1.08-6.339-2.045a3.41 3.41 0 0 1-1.255-.887 3.362 3.362 0 0 1-.732-1.341 8.66 8.66 0 0 1 .086-2.768 5.744 5.744 0 0 0-.329-2.784 8.763 8.763 0 0 0-1.617-2.495 21.575 21.575 0 0 0-5.216-4.25 22.821 22.821 0 0 0-7.189-2.732c-.157-.031-.175.215-.019.246v-.003Z"/><path fill="#fff" d="M126.89 78.733a3.283 3.283 0 0 0-.077-4.282c-.106-.12-.298.039-.191.158a3.04 3.04 0 0 1 .063 3.983c-.102.123.103.262.205.14Zm3.23 5.968a6.494 6.494 0 0 1-4.531-1.217c-.129-.095-.271.108-.143.2a6.757 6.757 0 0 0 4.718 1.257c.161-.015.116-.258-.044-.24Zm-9.296-9.923a1.877 1.877 0 0 1-.615.686c-.26.175-.559.283-.872.314-.159.016-.114.258.045.243.344-.036.674-.156.961-.347a2.11 2.11 0 0 0 .685-.753.125.125 0 0 0 .019-.092.13.13 0 0 0-.05-.08.126.126 0 0 0-.173.03Z"/><path fill="#E4E4E4" d="M128.195 20.137 18.118.188a1.708 1.708 0 0 0-.677.008 1.405 1.405 0 0 0-.556.257c-.16.124-.289.283-.376.464a1.43 1.43 0 0 0-.138.626v97.568c-.002.217.045.43.137.626.088.182.216.341.376.464a1.4 1.4 0 0 0 .556.257c.223.048.453.051.677.008l110.078-19.953a.526.526 0 0 0 .245-.123.934.934 0 0 0 .202-.25 1.36 1.36 0 0 0 .134-.34 1.6 1.6 0 0 0 .05-.4V21.25c0-.135-.016-.27-.05-.4a1.358 1.358 0 0 0-.134-.342.934.934 0 0 0-.202-.25.527.527 0 0 0-.245-.123v.002Z"/><path fill="#fff" d="M129.879 20.137 19.802.188a1.708 1.708 0 0 0-.677.008 1.405 1.405 0 0 0-.556.257c-.16.124-.289.283-.376.464a1.43 1.43 0 0 0-.138.626v97.568c-.003.217.044.43.137.626.087.182.216.341.376.464a1.4 1.4 0 0 0 .556.257c.223.048.453.051.677.008L129.88 80.513a.526.526 0 0 0 .245-.123.933.933 0 0 0 .202-.25 1.4 1.4 0 0 0 .134-.34c.033-.132.05-.266.05-.4V21.25c0-.135-.017-.27-.05-.4a1.397 1.397 0 0 0-.134-.342.934.934 0 0 0-.202-.25.527.527 0 0 0-.245-.123v.002Z"/><path fill="#CACACA" d="M129.879 20.137 19.802.188a1.708 1.708 0 0 0-.677.008 1.405 1.405 0 0 0-.556.257c-.16.124-.289.283-.376.464a1.43 1.43 0 0 0-.138.626v97.568c-.003.217.044.43.137.626.087.182.216.341.376.464a1.4 1.4 0 0 0 .556.257c.223.048.453.051.677.008L129.88 80.513a.526.526 0 0 0 .245-.123.933.933 0 0 0 .202-.25 1.4 1.4 0 0 0 .134-.34c.033-.132.05-.266.05-.4V21.25c0-.135-.017-.27-.05-.4a1.397 1.397 0 0 0-.134-.342.934.934 0 0 0-.202-.25.527.527 0 0 0-.245-.123v.002Zm.418 59.3a1.077 1.077 0 0 1-.122.493.608.608 0 0 1-.133.167.349.349 0 0 1-.163.082L19.803 99.91c-.15.028-.303.025-.452-.007a.936.936 0 0 1-.37-.172.863.863 0 0 1-.25-.309.955.955 0 0 1-.091-.416V1.642a.955.955 0 0 1 .092-.416.864.864 0 0 1 .25-.309.936.936 0 0 1 .37-.172c.148-.032.302-.034.451-.006L129.88 20.471a.355.355 0 0 1 .163.082.608.608 0 0 1 .133.167c.04.072.07.148.09.227.022.087.033.176.033.265v58.224l-.002.001Z"/><path fill="#E4E4E4" d="M.37 30.607a4.51 4.51 0 0 1 .417-1.93 4.073 4.073 0 0 1 1.13-1.442 4.245 4.245 0 0 1 1.66-.816 4.94 4.94 0 0 1 2.005-.06c.698.12 1.368.367 1.976.726a6.35 6.35 0 0 1 1.592 1.33c.45.52.808 1.109 1.063 1.745a5.38 5.38 0 0 1 .388 1.982 4.527 4.527 0 0 1-.389 1.864 4.082 4.082 0 0 1-1.062 1.425 4.208 4.208 0 0 1-1.592.852 4.862 4.862 0 0 1-1.976.133 5.765 5.765 0 0 1-2.004-.662 6.344 6.344 0 0 1-2.79-3.094 5.403 5.403 0 0 1-.417-2.053Zm0 20.196a4.51 4.51 0 0 1 .417-1.93 4.074 4.074 0 0 1 1.13-1.442 4.245 4.245 0 0 1 1.66-.815 4.94 4.94 0 0 1 2.005-.06c.698.12 1.368.366 1.976.726a6.35 6.35 0 0 1 1.592 1.33c.45.519.808 1.108 1.063 1.744a5.38 5.38 0 0 1 .387 1.982 4.527 4.527 0 0 1-.387 1.865 4.082 4.082 0 0 1-1.063 1.425 4.21 4.21 0 0 1-1.592.852 4.86 4.86 0 0 1-1.976.133 5.763 5.763 0 0 1-2.004-.663 6.342 6.342 0 0 1-2.79-3.094 5.403 5.403 0 0 1-.417-2.053Zm0 20.195a4.511 4.511 0 0 1 .417-1.93 4.074 4.074 0 0 1 1.13-1.442 4.245 4.245 0 0 1 1.66-.815 4.942 4.942 0 0 1 2.005-.06c.698.12 1.368.366 1.976.726a6.323 6.323 0 0 1 2.655 3.074c.253.63.385 1.303.388 1.982a4.527 4.527 0 0 1-.389 1.865 4.083 4.083 0 0 1-1.062 1.425 4.21 4.21 0 0 1-1.592.852 4.859 4.859 0 0 1-1.976.133 5.763 5.763 0 0 1-2.004-.663 6.343 6.343 0 0 1-2.79-3.094 5.404 5.404 0 0 1-.417-2.053Z"/><path fill="#F695AC" d="M1.632 30.607a4.512 4.512 0 0 1 .417-1.93 4.073 4.073 0 0 1 1.13-1.442 4.244 4.244 0 0 1 1.66-.816 4.94 4.94 0 0 1 2.005-.06c.698.12 1.368.367 1.976.726a6.35 6.35 0 0 1 1.592 1.33c.449.52.808 1.109 1.062 1.745a5.38 5.38 0 0 1 .387 1.982 4.526 4.526 0 0 1-.387 1.864 4.083 4.083 0 0 1-1.062 1.425 4.21 4.21 0 0 1-1.592.852 4.862 4.862 0 0 1-1.976.133 5.765 5.765 0 0 1-2.004-.662 6.343 6.343 0 0 1-2.79-3.094 5.403 5.403 0 0 1-.419-2.054h.001Zm.002 20.057a4.718 4.718 0 0 1 .417-1.96 4.524 4.524 0 0 1 1.13-1.525 4.64 4.64 0 0 1 1.66-.937 5.017 5.017 0 0 1 2.005-.206c.69.067 1.36.265 1.976.581a5.713 5.713 0 0 1 1.592 1.214c.45.488.81 1.052 1.062 1.665.255.622.386 1.286.387 1.956a4.724 4.724 0 0 1-.387 1.895 4.532 4.532 0 0 1-1.068 1.508 4.59 4.59 0 0 1-1.586.964 4.974 4.974 0 0 1-1.976.276 5.435 5.435 0 0 1-2.004-.515 5.693 5.693 0 0 1-2.79-2.892 5.178 5.178 0 0 1-.418-2.024Zm0 20.059a4.932 4.932 0 0 1 .402-1.956 4.976 4.976 0 0 1 1.146-1.644A5.152 5.152 0 0 1 5.32 65.91a5.193 5.193 0 0 1 2.464-.09 5.16 5.16 0 0 1 2.223 1.057 5.088 5.088 0 0 1 1.469 1.96 4.97 4.97 0 0 1-.456 4.68 5.053 5.053 0 0 1-1.803 1.64 5.189 5.189 0 0 1-5.233-.198 5.11 5.11 0 0 1-1.931-2.244 4.955 4.955 0 0 1-.419-1.99Z"/><path fill="#fff" d="m4.815 30.584 1.528.232v-1.491c0-.065.013-.129.04-.187a.4.4 0 0 1 .268-.222.482.482 0 0 1 .196-.008.633.633 0 0 1 .465.375c.026.063.04.131.04.2v1.489l1.5.228a.606.606 0 0 1 .456.368.531.531 0 0 1 .039.2.445.445 0 0 1-.14.325.404.404 0 0 1-.157.082.47.47 0 0 1-.193.01l-1.501-.222v1.485a.448.448 0 0 1-.04.187.406.406 0 0 1-.268.225.484.484 0 0 1-.196.01.619.619 0 0 1-.465-.369.53.53 0 0 1-.039-.2v-1.49l-1.528-.227a.58.58 0 0 1-.202-.07.634.634 0 0 1-.273-.304.533.533 0 0 1-.04-.2.444.444 0 0 1 .04-.19.425.425 0 0 1 .273-.225.496.496 0 0 1 .197-.011Zm1.071 21.814 4.245.3h.015l-1.99-3.575a.16.16 0 0 0-.16-.08.124.124 0 0 0-.086.058l-1.355 2.2-.065.105-.604.992Z"/><path fill="#fff" d="m3.465 52.227 3.74.269-.718-1.078-.051-.078-.937-1.413a.213.213 0 0 0-.138-.082.195.195 0 0 0-.08.007.175.175 0 0 0-.066.037l-1.75 2.338Zm2.831-3.687a.683.683 0 0 1 .45.22.698.698 0 0 1 .135.21.66.66 0 0 1 .05.247.556.556 0 0 1-.387.543.622.622 0 0 1-.248.03.685.685 0 0 1-.45-.22.7.7 0 0 1-.138-.21.644.644 0 0 1-.05-.249.557.557 0 0 1 .39-.542.622.622 0 0 1 .248-.03Z"/><path fill="#E6E6E6" d="m52.09 62.792 42.02-39.445.18.312-41.938 39.467-.262-.334Z"/><path fill="#E6E6E6" d="m52.096 18.082.264-.312 41.927 43.06-.181.3-42.01-43.048Z"/><path fill="#E6E6E6" d="m93.684 22.768-40.846-5.552a1.214 1.214 0 0 0-1.025.323 1.33 1.33 0 0 0-.312.458 1.567 1.567 0 0 0-.116.6v43.5c0 .209.039.415.116.608.07.18.177.345.312.486.13.134.288.24.462.311.178.072.37.104.563.093l40.846-2.225a.836.836 0 0 0 .388-.125 1.14 1.14 0 0 0 .315-.3c.094-.13.165-.273.213-.425a1.69 1.69 0 0 0 .077-.509V24.203a1.75 1.75 0 0 0-.078-.516 1.619 1.619 0 0 0-.212-.44 1.26 1.26 0 0 0-.315-.322.9.9 0 0 0-.388-.155ZM52.838 63.15a.936.936 0 0 1-.734-.291 1.063 1.063 0 0 1-.222-.348 1.171 1.171 0 0 1-.082-.434V18.653a1.12 1.12 0 0 1 .082-.428.953.953 0 0 1 .222-.328.867.867 0 0 1 .734-.235l40.846 5.477c.1.015.195.053.278.111.088.063.165.14.226.23.067.096.118.203.153.315.037.12.055.243.055.369v35.865c0 .124-.018.247-.055.364a1.048 1.048 0 0 1-.153.3.797.797 0 0 1-.226.212.596.596 0 0 1-.278.087L52.838 63.15Zm-1.352 5.04a.627.627 0 0 0-.303.116.941.941 0 0 0-.243.26 1.331 1.331 0 0 0-.163.366 1.554 1.554 0 0 0 .006.847c.036.118.091.229.164.329.063.087.146.16.241.213.09.049.192.071.294.066l71.508-5.858a.247.247 0 0 0 .151-.068.563.563 0 0 0 .124-.172c.038-.08.066-.164.084-.25.021-.099.032-.2.032-.3.002-.1-.008-.201-.027-.3a.953.953 0 0 0-.081-.243.484.484 0 0 0-.121-.162.223.223 0 0 0-.151-.055h-.013L51.487 68.19Zm0 6.668a.645.645 0 0 0-.303.123.977.977 0 0 0-.243.266 1.37 1.37 0 0 0-.163.37 1.57 1.57 0 0 0-.057.436c.001.14.022.278.063.412.035.117.09.227.164.325a.706.706 0 0 0 .24.206c.09.046.193.066.294.058l71.508-7.8a.255.255 0 0 0 .152-.073.584.584 0 0 0 .124-.176 1.13 1.13 0 0 0 .084-.253c.021-.099.032-.2.032-.3a1.373 1.373 0 0 0-.027-.3.938.938 0 0 0-.081-.241.465.465 0 0 0-.121-.158.218.218 0 0 0-.151-.051h-.013l-71.501 7.156Zm-.001 6.558a.664.664 0 0 0-.304.133 1 1 0 0 0-.243.272 1.412 1.412 0 0 0-.163.376c-.04.142-.058.289-.057.436.001.14.022.278.063.41.035.116.09.224.164.32a.682.682 0 0 0 .24.2.535.535 0 0 0 .295.05l71.508-9.719a.265.265 0 0 0 .152-.077.604.604 0 0 0 .124-.178 1.12 1.12 0 0 0 .09-.261 1.441 1.441 0 0 0 .004-.605.922.922 0 0 0-.081-.24.438.438 0 0 0-.121-.154.211.211 0 0 0-.151-.047h-.013l-71.507 9.085Z"/><path fill="#fff" d="m8.887 68.61-4.083-.047a.587.587 0 0 0-.375.119.56.56 0 0 0-.206.327.532.532 0 0 0 .057.344.571.571 0 0 0 .494.296l1.228.01a.3.3 0 0 1 .272.179.284.284 0 0 1 .023.113v2.379a.555.555 0 0 0 .804.505.547.547 0 0 0 .293-.478v-2.4a.282.282 0 0 1 .178-.264.29.29 0 0 1 .11-.021l1.173.009a.557.557 0 0 0 .56-.44.535.535 0 0 0-.305-.578.55.55 0 0 0-.227-.052h.004Zm.003 3.21a.545.545 0 0 1 .519.382.53.53 0 0 1-.22.601.546.546 0 0 1-.825-.319.53.53 0 0 1 .226-.574.546.546 0 0 1 .3-.09Z"/><path fill="#6C63FF" d="m99.09 27.498-40.846-5.552a1.215 1.215 0 0 0-1.025.323c-.135.13-.242.286-.312.459a1.54 1.54 0 0 0-.115.6v43.5c-.001.208.038.414.115.608.071.18.177.344.312.485a1.308 1.308 0 0 0 1.025.405L99.09 66.1a.835.835 0 0 0 .388-.125c.124-.079.231-.18.316-.3.093-.13.165-.273.212-.424.052-.165.078-.337.078-.51V28.934a1.77 1.77 0 0 0-.078-.517 1.625 1.625 0 0 0-.213-.44 1.26 1.26 0 0 0-.315-.322.9.9 0 0 0-.388-.155Z"/><path fill="#F695AC" d="m99.09 27.498-40.846-5.552a1.215 1.215 0 0 0-1.025.323c-.135.13-.242.286-.312.459a1.54 1.54 0 0 0-.115.6v43.5c-.001.208.038.414.115.608.071.18.177.344.312.485a1.308 1.308 0 0 0 1.025.405L99.09 66.1a.835.835 0 0 0 .388-.125c.124-.079.231-.18.316-.3.093-.13.165-.273.212-.424.052-.165.078-.337.078-.51V28.934a1.77 1.77 0 0 0-.078-.517 1.625 1.625 0 0 0-.213-.44 1.26 1.26 0 0 0-.315-.322.9.9 0 0 0-.388-.155Z" opacity=".2"/><path fill="#F695AC" d="m100.774 27.498-40.846-5.552a1.214 1.214 0 0 0-1.025.323 1.34 1.34 0 0 0-.313.458 1.585 1.585 0 0 0-.115.6v43.5c0 .209.039.415.115.608.072.18.178.345.313.486.13.134.288.24.462.311.178.073.37.104.563.094l40.846-2.227a.833.833 0 0 0 .388-.125 1.11 1.11 0 0 0 .315-.3c.094-.129.165-.272.213-.424a1.69 1.69 0 0 0 .077-.509V28.932c0-.174-.026-.348-.077-.515a1.617 1.617 0 0 0-.213-.442 1.242 1.242 0 0 0-.315-.322.896.896 0 0 0-.388-.154Z"/></svg>